<svg viewBox="0 0 17 16" fill="none" xmlns="http://www.w3.org/2000/svg">
<path d="M14.5 5.00008V4.00008C14.5 3.64646 14.3595 3.30732 14.1095 3.05727C13.8594 2.80722 13.5203 2.66675 13.1667 2.66675H3.83333C3.47971 2.66675 3.14057 2.80722 2.89052 3.05727C2.64048 3.30732 2.5 3.64646 2.5 4.00008V13.3334C2.5 13.687 2.64048 14.0262 2.89052 14.2762C3.14057 14.5263 3.47971 14.6667 3.83333 14.6667H6.16667" stroke="currentColor" stroke-width="1.5" stroke-linecap="round" stroke-linejoin="round"/>
<path d="M11.1667 1.33325V3.99992" stroke="currentColor" stroke-width="1.5" stroke-linecap="round" stroke-linejoin="round"/>
<path d="M5.83333 1.33325V3.99992" stroke="currentColor" stroke-width="1.5" stroke-linecap="round" stroke-linejoin="round"/>
<path d="M2.5 6.66675H5.83333" stroke="currentColor" stroke-width="1.5" stroke-linecap="round" stroke-linejoin="round"/>
<path d="M12.1667 11.6666L11.1667 10.8333V9.33325" stroke="currentColor" stroke-width="1.5" stroke-linecap="round" stroke-linejoin="round"/>
<path d="M15.1667 10.6667C15.1667 11.7276 14.7452 12.745 13.9951 13.4952C13.245 14.2453 12.2275 14.6667 11.1667 14.6667C10.1058 14.6667 9.08839 14.2453 8.33824 13.4952C7.5881 12.745 7.16667 11.7276 7.16667 10.6667C7.16667 9.60588 7.5881 8.58847 8.33824 7.83832C9.08839 7.08818 10.1058 6.66675 11.1667 6.66675C12.2275 6.66675 13.245 7.08818 13.9951 7.83832C14.7452 8.58847 15.1667 9.60588 15.1667 10.6667Z" stroke="currentColor" stroke-width="1.5" stroke-linecap="round" stroke-linejoin="round"/>
</svg>
