<svg width="17" height="16" viewBox="0 0 17 16" fill="none" xmlns="http://www.w3.org/2000/svg">
<path d="M13.8333 6.66658C13.8333 10.6666 8.50001 14.6666 8.50001 14.6666C8.50001 14.6666 3.16667 10.6666 3.16667 6.66658C3.16667 5.2521 3.72858 3.89554 4.72877 2.89535C5.72896 1.89516 7.08552 1.33325 8.50001 1.33325C9.91449 1.33325 11.271 1.89516 12.2712 2.89535C13.2714 3.89554 13.8333 5.2521 13.8333 6.66658Z" stroke="currentColor" stroke-width="1.5" stroke-linecap="round" stroke-linejoin="round"/>
<path d="M8.5 8.66675C9.60457 8.66675 10.5 7.77132 10.5 6.66675C10.5 5.56218 9.60457 4.66675 8.5 4.66675C7.39543 4.66675 6.5 5.56218 6.5 6.66675C6.5 7.77132 7.39543 8.66675 8.5 8.66675Z" stroke="currentColor" stroke-width="1.5" stroke-linecap="round" stroke-linejoin="round"/>
</svg>
