<svg width="17" height="16" viewBox="0 0 17 16" fill="none" xmlns="http://www.w3.org/2000/svg">
<path d="M4.36666 7.53345L1.83333 14.6668L8.96666 12.1401" stroke="currentColor" stroke-width="1.5" stroke-linecap="round" stroke-linejoin="round"/>
<path d="M3.16667 2H3.17334" stroke="currentColor" stroke-width="1.5" stroke-linecap="round" stroke-linejoin="round"/>
<path d="M15.1667 5.33325H15.1733" stroke="currentColor" stroke-width="1.5" stroke-linecap="round" stroke-linejoin="round"/>
<path d="M10.5 1.33325H10.5067" stroke="currentColor" stroke-width="1.5" stroke-linecap="round" stroke-linejoin="round"/>
<path d="M15.1667 13.3333H15.1733" stroke="currentColor" stroke-width="1.5" stroke-linecap="round" stroke-linejoin="round"/>
<path d="M15.1667 1.33325L13.6733 1.83325C13.2483 1.97484 12.8855 2.25968 12.6472 2.63907C12.4089 3.01846 12.3097 3.46885 12.3667 3.91325C12.4333 4.48659 11.9867 4.99992 11.4 4.99992H11.1467C10.5733 4.99992 10.08 5.39992 9.97333 5.95992L9.83333 6.66659" stroke="currentColor" stroke-width="1.5" stroke-linecap="round" stroke-linejoin="round"/>
<path d="M15.1667 8.66678L14.62 8.44678C14.0467 8.22012 13.4067 8.58012 13.3 9.18678C13.2267 9.65345 12.82 10.0001 12.3467 10.0001H11.8333" stroke="currentColor" stroke-width="1.5" stroke-linecap="round" stroke-linejoin="round"/>
<path d="M7.83333 1.33325L8.05333 1.87992C8.28 2.45325 7.92 3.09325 7.31333 3.19992C6.84667 3.26659 6.5 3.67992 6.5 4.15325V4.66659" stroke="currentColor" stroke-width="1.5" stroke-linecap="round" stroke-linejoin="round"/>
<path d="M7.83333 8.6666C9.12 9.95326 9.72 11.4466 9.16666 11.9999C8.61333 12.5533 7.12 11.9533 5.83333 10.6666C4.54666 9.37993 3.94666 7.8866 4.5 7.33326C5.05333 6.77993 6.54666 7.37993 7.83333 8.6666Z" stroke="currentColor" stroke-width="1.5" stroke-linecap="round" stroke-linejoin="round"/>
</svg>
