<svg width="16" height="16" viewBox="0 0 16 16" fill="none" xmlns="http://www.w3.org/2000/svg">
<path d="M16 9.5999V13.5999H0V9.5999C0.424346 9.5999 0.831313 9.43133 1.13137 9.13127C1.43143 8.83121 1.6 8.42425 1.6 7.9999C1.6 7.57556 1.43143 7.16859 1.13137 6.86853C0.831313 6.56847 0.424346 6.3999 0 6.3999L0 2.3999H16V6.3999C15.5757 6.3999 15.1687 6.56847 14.8686 6.86853C14.5686 7.16859 14.4 7.57556 14.4 7.9999C14.4 8.42425 14.5686 8.83121 14.8686 9.13127C15.1687 9.43133 15.5757 9.5999 16 9.5999ZM2.4 3.9999V11.9999H13.6V3.9999H2.4ZM8 9.6639L5.664 11.2959L6.48 8.5599L4.216 6.8479L7.064 6.7839L8 4.0959L8.936 6.7839L11.784 6.8479L9.512 8.5679L10.336 11.2879L8 9.6719V9.6639Z" fill="black"/>
</svg>
