<svg width="17" height="16" viewBox="0 0 17 16" fill="none" xmlns="http://www.w3.org/2000/svg">
<path d="M11.1667 14V12.6667C11.1667 11.9594 10.8857 11.2811 10.3856 10.781C9.88552 10.281 9.20724 10 8.49999 10H4.49999C3.79275 10 3.11447 10.281 2.61438 10.781C2.11428 11.2811 1.83333 11.9594 1.83333 12.6667V14" stroke="currentColor" stroke-width="1.5" stroke-linecap="round" stroke-linejoin="round"/>
<path d="M6.49999 7.33333C7.97275 7.33333 9.16666 6.13943 9.16666 4.66667C9.16666 3.19391 7.97275 2 6.49999 2C5.02724 2 3.83333 3.19391 3.83333 4.66667C3.83333 6.13943 5.02724 7.33333 6.49999 7.33333Z" stroke="currentColor" stroke-width="1.5" stroke-linecap="round" stroke-linejoin="round"/>
<path d="M15.1667 14V12.6667C15.1662 12.0758 14.9696 11.5019 14.6076 11.0349C14.2456 10.5679 13.7388 10.2344 13.1667 10.0867" stroke="currentColor" stroke-width="1.5" stroke-linecap="round" stroke-linejoin="round"/>
<path d="M11.1667 2.08667C11.7403 2.23354 12.2487 2.56714 12.6118 3.03488C12.9748 3.50262 13.1719 4.07789 13.1719 4.67C13.1719 5.26212 12.9748 5.83739 12.6118 6.30513C12.2487 6.77287 11.7403 7.10647 11.1667 7.25334" stroke="currentColor" stroke-width="1.5" stroke-linecap="round" stroke-linejoin="round"/>
</svg>
