<svg width="16" height="16" viewBox="0 0 16 16" fill="none" xmlns="http://www.w3.org/2000/svg">
<path d="M12.4444 0C13.3567 -7.1356e-07 14.234 0.350609 14.8949 0.97931C15.5559 1.60801 15.9499 2.4667 15.9956 3.37778L16 3.55556V12.4444C16 13.3567 15.6494 14.234 15.0207 14.8949C14.392 15.5559 13.5333 15.9499 12.6222 15.9956L12.4444 16H3.55556C2.64334 16 1.76602 15.6494 1.10506 15.0207C0.444093 14.392 0.0500553 13.5333 0.00444455 12.6222L0 12.4444V3.55556C-7.1356e-07 2.64334 0.350609 1.76602 0.97931 1.10506C1.60801 0.444093 2.4667 0.0500553 3.37778 0.00444455L3.55556 0H12.4444ZM12.4444 1.77778H3.55556C3.10704 1.77764 2.67505 1.94703 2.34618 2.252C2.01731 2.55697 1.81586 2.97497 1.78222 3.42222L1.77778 3.55556V12.4444C1.77764 12.893 1.94703 13.3249 2.252 13.6538C2.55697 13.9827 2.97497 14.1841 3.42222 14.2178L3.55556 14.2222H12.4444C12.893 14.2224 13.3249 14.053 13.6538 13.748C13.9827 13.443 14.1841 13.025 14.2178 12.5778L14.2222 12.4444V3.55556C14.2224 3.10704 14.053 2.67505 13.748 2.34618C13.443 2.01731 13.025 1.81586 12.5778 1.78222L12.4444 1.77778ZM11.0693 5.53333L11.2604 5.28444C11.3913 5.0883 11.5947 4.95217 11.8259 4.90599C12.0571 4.85982 12.2972 4.90738 12.4933 5.03822C12.6895 5.16906 12.8256 5.37246 12.8718 5.60367C12.918 5.83488 12.8704 6.07497 12.7396 6.27111C12.3634 6.81683 11.9262 7.31785 11.4364 7.76444C11.3096 7.88163 11.1792 7.99487 11.0453 8.104C12.0213 8.62311 12.8142 9.41956 13.2391 10.2693C13.2956 10.3741 13.3305 10.4892 13.3417 10.6077C13.3529 10.7262 13.3401 10.8458 13.3042 10.9593C13.2684 11.0728 13.21 11.1779 13.1327 11.2684C13.0554 11.359 12.9607 11.433 12.8543 11.4863C12.7478 11.5395 12.6317 11.5708 12.5129 11.5783C12.3941 11.5859 12.275 11.5695 12.1626 11.5301C12.0503 11.4907 11.947 11.4291 11.8589 11.3491C11.7708 11.269 11.6997 11.1721 11.6498 11.064C11.2436 10.2533 10.192 9.46044 9.07556 9.29778L8.88889 9.27733V10.6667C8.88889 10.9024 8.79524 11.1285 8.62854 11.2952C8.46184 11.4619 8.23575 11.5556 8 11.5556C4.89778 11.5556 2.66667 9.00622 2.66667 5.77778C2.66667 5.54203 2.76032 5.31594 2.92702 5.14924C3.09372 4.98254 3.31981 4.88889 3.55556 4.88889C3.7913 4.88889 4.0174 4.98254 4.18409 5.14924C4.35079 5.31594 4.44444 5.54203 4.44444 5.77778C4.44444 7.44356 5.31378 9.06578 6.92889 9.60889L7.11111 9.66489V5.77778C7.11111 5.272 7.51822 4.91644 8 4.88889C8.20032 4.88873 8.39483 4.95624 8.55198 5.08047C8.70913 5.20471 8.8197 5.37838 8.86578 5.57333L8.88356 5.67378L8.88978 7.36267C9.33067 7.17956 9.78311 6.87111 10.2302 6.45778C10.5396 6.17333 10.8116 5.86044 11.0693 5.53333Z" fill="currentColor"/>
</svg>
