<svg width="17" height="16" viewBox="0 0 17 16" fill="none" xmlns="http://www.w3.org/2000/svg">
<path d="M15.1667 11.28V13.28C15.1674 13.4657 15.1294 13.6494 15.055 13.8195C14.9806 13.9897 14.8715 14.1424 14.7347 14.2679C14.5979 14.3934 14.4364 14.489 14.2605 14.5485C14.0846 14.6079 13.8983 14.63 13.7133 14.6133C11.6619 14.3904 9.69134 13.6894 7.96001 12.5667C6.34923 11.5431 4.98356 10.1774 3.96001 8.56665C2.83333 6.82745 2.13217 4.84731 1.91334 2.78665C1.89668 2.60229 1.91859 2.41649 1.97767 2.24107C2.03676 2.06564 2.13172 1.90444 2.25652 1.76773C2.38131 1.63102 2.53321 1.52179 2.70253 1.447C2.87186 1.37221 3.0549 1.33349 3.24001 1.33332H5.24001C5.56354 1.33013 5.8772 1.4447 6.12251 1.65567C6.36783 1.86664 6.52806 2.15961 6.57334 2.47998C6.65775 3.12003 6.81431 3.74847 7.04001 4.35332C7.1297 4.59193 7.14911 4.85126 7.09594 5.10057C7.04277 5.34988 6.91925 5.57872 6.74001 5.75998L5.89334 6.60665C6.84238 8.27568 8.22431 9.65761 9.89334 10.6067L10.74 9.75998C10.9213 9.58074 11.1501 9.45722 11.3994 9.40405C11.6487 9.35088 11.9081 9.37029 12.1467 9.45998C12.7515 9.68568 13.38 9.84224 14.02 9.92665C14.3439 9.97234 14.6396 10.1355 14.851 10.385C15.0624 10.6345 15.1748 10.953 15.1667 11.28Z" stroke="#64748B" stroke-width="1.5" stroke-linecap="round" stroke-linejoin="round"/>
<path d="M9.86667 1.33325C11.2255 1.47643 12.4948 2.07912 13.4646 3.04164C14.4344 4.00416 15.0466 5.26886 15.2 6.62659" stroke="#64748B" stroke-width="1.5" stroke-linecap="round" stroke-linejoin="round"/>
<path d="M9.86667 4C10.5223 4.12929 11.124 4.45268 11.5936 4.92821C12.0632 5.40373 12.379 6.00942 12.5 6.66667" stroke="#64748B" stroke-width="1.5" stroke-linecap="round" stroke-linejoin="round"/>
</svg>
