<svg width="17" height="16" viewBox="0 0 17 16" fill="none" xmlns="http://www.w3.org/2000/svg">
<path d="M3.35091 2.84461L3.35096 2.84466C3.73209 2.47111 4.23535 2.26891 5.01517 2.16432L5.01532 2.1643C5.80569 2.05853 6.83819 2.05804 8.25115 2.05804H8.74869C10.164 2.05804 11.1972 2.05854 11.9883 2.16429L11.9886 2.16433C12.7676 2.26893 13.2697 2.47118 13.6486 2.84359L13.6553 2.85015L13.6552 2.85021C14.0288 3.23138 14.2309 3.73542 14.3362 4.51468L14.3364 4.51586C14.4413 5.30592 14.4418 6.33812 14.4418 7.75121V8.24876V8.26107C14.4418 9.66943 14.4418 10.6995 14.3355 11.4887L3.35091 2.84461ZM3.35091 2.84461L3.34485 2.85075M3.35091 2.84461L3.34485 2.85075M3.34485 2.85075C2.97097 3.23008 2.76968 3.73269 2.66438 4.51072L2.66428 4.51153M3.34485 2.85075L2.66428 4.51153M2.66428 4.51153C2.5588 5.30055 2.5588 6.33058 2.5588 7.73948V7.75121V8.24876V8.26056C2.5588 9.66709 2.5588 10.6964 2.66429 11.4846L2.6643 11.4848M2.66428 4.51153L2.6643 11.4848M2.6643 11.4848C2.76886 12.2643 2.97097 12.7685 3.34464 13.1498L3.34456 13.1498M2.6643 11.4848L3.34456 13.1498M3.34456 13.1498L3.35176 13.1569M3.34456 13.1498L3.35176 13.1569M3.35176 13.1569C3.73114 13.5287 4.23263 13.731 5.01114 13.8356L5.0115 13.8357M3.35176 13.1569L5.0115 13.8357M5.0115 13.8357C5.8026 13.9414 6.83584 13.9419 8.25115 13.9419H8.74869C10.1617 13.9419 11.1941 13.9414 11.9852 13.8357L11.9855 13.8356M5.0115 13.8357L11.9855 13.8356M11.9855 13.8356C12.7644 13.7311 13.2685 13.5289 13.6497 13.1553L13.6497 13.1554M11.9855 13.8356L13.6497 13.1554M13.6497 13.1554L13.6563 13.1487M13.6497 13.1554L13.6563 13.1487M13.6563 13.1487C14.0287 12.7698 14.2309 12.2678 14.3355 11.489L13.6563 13.1487ZM14.0369 2.44742L14.0332 2.44323C13.5352 1.95604 12.8995 1.72696 12.0618 1.61462L14.0369 2.44742ZM14.0369 2.44742L14.046 2.45663M14.0369 2.44742L14.046 2.45663M14.046 2.45663C14.5406 2.9583 14.7729 3.59783 14.886 4.44204C15.0065 5.34627 15.0024 6.26633 14.9982 7.21859C14.9974 7.39499 14.9966 7.5725 14.9966 7.75121V8.24876C14.9966 8.42929 14.9975 8.60856 14.9983 8.78669C15.0026 9.73814 15.0068 10.6572 14.8853 11.5616L14.8852 11.5622M14.046 2.45663L14.8852 11.5622M14.8852 11.5622C14.7737 12.3993 14.544 13.0351 14.0566 13.5333L14.0523 13.5372M14.8852 11.5622L14.0523 13.5372M14.0523 13.5372L14.043 13.5464M14.0523 13.5372L14.043 13.5464M14.043 13.5464C13.5425 14.0405 12.9035 14.2722 12.058 14.3861C11.1537 14.5066 10.2336 14.5026 9.28131 14.4983C9.10491 14.4976 8.92741 14.4968 8.74869 14.4968H8.25115C8.07298 14.4968 7.89601 14.4976 7.72014 14.4983C6.76646 14.5025 5.84501 14.5066 4.9389 14.3854C4.0941 14.2722 3.45553 14.0406 2.95675 13.5463L2.95278 13.5423C2.45962 13.0407 2.22761 12.4014 2.11461 11.5579L2.1146 11.5579M14.043 13.5464L2.1146 11.5579M2.1146 11.5579C1.99338 10.6538 1.99744 9.73329 2.00164 8.77981C2.00242 8.60395 2.0032 8.42697 2.0032 8.24876V7.75121C2.0032 7.57371 2.00243 7.39739 2.00166 7.22217C1.99747 6.26777 1.99342 5.34565 2.11536 4.43837L2.11543 4.43779M2.1146 11.5579L2.11543 4.43779M2.11543 4.43779C2.22777 3.59454 2.46 2.95559 2.95472 2.45576L2.95783 2.45266C3.45905 1.9591 4.09793 1.72771 4.94186 1.61385C5.84912 1.49369 6.7719 1.49763 7.72596 1.50171C7.89995 1.50245 8.07498 1.5032 8.25115 1.5032H8.74869M2.11543 4.43779L8.74869 1.5032M8.74869 1.5032C8.927 1.5032 9.10408 1.50242 9.28006 1.50164M8.74869 1.5032L9.28006 1.50164M9.28006 1.50164C10.2342 1.49744 11.1556 1.49338 12.0617 1.6146L9.28006 1.50164ZM8.63429 10.5755C7.31687 10.5092 6.31508 10.0212 5.61575 9.21039C4.92832 8.41334 4.49269 7.25693 4.38643 5.76191H4.99058C5.17299 8.24087 6.35306 9.4888 7.5064 9.77713L8.12766 9.93245V9.29206V5.76191H8.63429V7.56152V8.11766L9.18729 8.05871C9.80693 7.99265 10.3817 7.61936 10.8268 7.15081C11.1943 6.76389 11.5054 6.27972 11.7089 5.75725H12.1888C12.0719 6.06769 11.916 6.36294 11.7243 6.63567C11.4123 7.07943 11.0121 7.45407 10.5488 7.73618L9.7752 8.20721L10.586 8.61085C11.1053 8.86936 11.5639 9.235 11.9316 9.68366C12.157 9.95877 12.3451 10.2613 12.4919 10.5832H11.8921C11.4223 9.48812 10.4576 8.63219 9.18385 8.50532L8.63429 8.45059V9.00286V10.5755Z" fill="black" stroke="#64748B"/>
</svg>
