<svg width="65" height="64" viewBox="0 0 65 64" fill="none" xmlns="http://www.w3.org/2000/svg">
<path d="M51.7857 8.85698H49.8571V6.98264C49.8571 5.94483 49.0592 5.05407 48.0214 5.00223C47.7606 4.98967 47.5 5.03018 47.2554 5.12131C47.0107 5.21243 46.7871 5.35228 46.5981 5.53238C46.4091 5.71247 46.2587 5.92907 46.1559 6.16903C46.0531 6.409 46 6.66734 46 6.9284V8.85698H19V6.98264C19 5.94483 18.2021 5.05407 17.1642 5.00223C16.9035 4.98967 16.6429 5.03018 16.3982 5.12131C16.1536 5.21243 15.93 5.35228 15.741 5.53238C15.552 5.71247 15.4015 5.92907 15.2987 6.16903C15.1959 6.409 15.1429 6.66734 15.1429 6.9284V8.85698H13.2143C11.1683 8.85698 9.20617 9.66973 7.75946 11.1164C6.31275 12.5632 5.5 14.5253 5.5 16.5713V18.0177C5.5 18.1456 5.5508 18.2682 5.64122 18.3587C5.73164 18.4491 5.85427 18.4999 5.98214 18.4999H59.0179C59.1457 18.4999 59.2684 18.4491 59.3588 18.3587C59.4492 18.2682 59.5 18.1456 59.5 18.0177V16.5713C59.5 14.5253 58.6872 12.5632 57.2405 11.1164C55.7938 9.66973 53.8317 8.85698 51.7857 8.85698ZM59.0179 22.357H5.98214C5.85427 22.357 5.73164 22.4078 5.64122 22.4982C5.5508 22.5887 5.5 22.7113 5.5 22.8392V51.2857C5.5 53.3317 6.31275 55.2938 7.75946 56.7405C9.20617 58.1872 11.1683 59 13.2143 59H51.7857C53.8317 59 55.7938 58.1872 57.2405 56.7405C58.6872 55.2938 59.5 53.3317 59.5 51.2857V22.8392C59.5 22.7113 59.4492 22.5887 59.3588 22.4982C59.2684 22.4078 59.1457 22.357 59.0179 22.357ZM30.5208 49.4897C29.0539 50.6481 27.0554 51.2857 24.8918 51.2857C21.5325 51.2857 19.0482 49.0968 17.9417 47.2236C17.6812 46.7831 17.6063 46.2571 17.7335 45.7614C17.8608 45.2657 18.1798 44.8408 18.6203 44.5803C19.0608 44.3197 19.5868 44.2449 20.0825 44.3721C20.5783 44.4994 21.0031 44.8184 21.2637 45.2589C21.3938 45.4807 22.6076 47.4285 24.8918 47.4285C26.8999 47.4285 29.2455 46.5498 29.2455 44.0752C29.2455 43.3219 29.0985 42.2732 28.4018 41.5584C27.3724 40.5049 25.6596 40.0312 24.7725 40.0312C24.261 40.0312 23.7704 39.828 23.4088 39.4664C23.0471 39.1047 22.8439 38.6141 22.8439 38.1027C22.8439 37.5912 23.0471 37.1006 23.4088 36.7389C23.7704 36.3773 24.261 36.1741 24.7725 36.1741C25.3571 36.1741 26.871 35.8607 27.8196 34.8904C28.0762 34.638 28.2788 34.3359 28.4149 34.0027C28.5511 33.6695 28.618 33.3121 28.6115 32.9521C28.6115 30.1521 25.1606 30.0713 24.7676 30.0713C22.6775 30.0713 21.8989 31.3502 21.8663 31.4045C21.741 31.6291 21.5721 31.8264 21.3694 31.9848C21.1667 32.1431 20.9344 32.2594 20.6861 32.3266C20.4378 32.3938 20.1786 32.4107 19.9237 32.3762C19.6687 32.3418 19.4233 32.2567 19.2018 32.1259C18.9803 31.9952 18.7871 31.8214 18.6338 31.6149C18.4804 31.4084 18.3699 31.1733 18.3087 30.9235C18.2476 30.6736 18.2371 30.4141 18.2777 30.1601C18.3184 29.9061 18.4095 29.6628 18.5456 29.4445C19.4665 27.8776 21.5855 26.2142 24.7676 26.2142C26.7492 26.2142 28.5958 26.7891 29.9663 27.8318C31.5803 29.0612 32.4687 30.8789 32.4687 32.9521C32.4741 33.8117 32.3092 34.6638 31.9836 35.4592C31.658 36.2547 31.178 36.9778 30.5714 37.5868C30.4328 37.729 30.287 37.8616 30.1387 37.9906C30.5008 38.2521 30.8403 38.5436 31.1536 38.862C32.4265 40.1638 33.0991 41.9658 33.0991 44.0752C33.1027 46.2521 32.1854 48.1747 30.5208 49.4897ZM46 48.875C46 49.3865 45.7968 49.877 45.4351 50.2387C45.0735 50.6004 44.5829 50.8035 44.0714 50.8035C43.5599 50.8035 43.0694 50.6004 42.7077 50.2387C42.346 49.877 42.1429 49.3865 42.1429 48.875V32.0349L39.4296 34.0346C39.2257 34.1849 38.9942 34.2937 38.7483 34.3546C38.5024 34.4155 38.2469 34.4274 37.9964 34.3895C37.7459 34.3517 37.5053 34.2649 37.2884 34.1341C37.0714 34.0033 36.8824 33.831 36.732 33.6271C36.5816 33.4233 36.4729 33.1918 36.412 32.9459C36.3511 32.7 36.3392 32.4445 36.377 32.194C36.4149 31.9435 36.5017 31.7029 36.6325 31.4859C36.7633 31.269 36.9355 31.0799 37.1394 30.9296L42.3731 27.0724C42.7045 26.8282 43.1053 26.6964 43.517 26.6963H44.0714C44.5829 26.6963 45.0735 26.8995 45.4351 27.2612C45.7968 27.6229 46 28.1134 46 28.6249V48.875Z" fill="url(#paint0_linear_161_1264)"/>
<defs>
<linearGradient id="paint0_linear_161_1264" x1="32.5" y1="5" x2="32.5" y2="59" gradientUnits="userSpaceOnUse">
<stop stop-color="#F4DE17"/>
<stop offset="1" stop-color="#ED7911"/>
</linearGradient>
</defs>
</svg>
