<svg width="64" height="64" viewBox="0 0 64 64" fill="none" xmlns="http://www.w3.org/2000/svg">
<g clip-path="url(#clip0_241_3152)">
<path d="M59.5734 43.2003L51.5298 35.1585H54.1261C54.7151 35.1585 55.2481 34.8042 55.4732 34.2589C55.6984 33.7136 55.5739 33.0866 55.1569 32.6705L49.1396 26.6513H50.0839C50.6738 26.6513 51.2058 26.2969 51.431 25.7516C51.6561 25.2063 51.5317 24.5812 51.1146 24.1632L43.4358 16.4844C42.8895 15.9372 41.9215 15.9372 41.3743 16.4844L33.6964 24.1632C33.2793 24.5803 33.1549 25.2063 33.38 25.7516C33.6052 26.2969 34.1381 26.6513 34.7271 26.6513H35.4624L33.4028 28.5532C32.8119 29.0985 32.7749 30.0209 33.3211 30.6128C33.8664 31.2046 34.7889 31.2417 35.3807 30.6945L40.1792 26.2656C40.6209 25.8571 40.7672 25.2225 40.5487 24.662C40.3302 24.1034 39.7916 23.7357 39.1902 23.7357H38.2459L42.405 19.5757L46.5651 23.7357H45.6198C45.0308 23.7357 44.4988 24.0901 44.2737 24.6354C44.0476 25.1788 44.173 25.8058 44.5891 26.2238L50.6073 32.2411H48.011C47.421 32.2411 46.889 32.5973 46.6639 33.1407C46.4387 33.686 46.5632 34.313 46.9802 34.731L55.0229 42.7728H52.4389C51.6333 42.7728 50.9807 43.4264 50.9807 44.231C50.9807 45.0357 51.6343 45.6874 52.4389 45.6874H58.5417C59.1317 45.6874 59.6637 45.333 59.8888 44.7896C60.1149 44.2453 59.9895 43.6183 59.5734 43.2003Z" fill="#FF1E18"/>
<path d="M52.1141 48.1734C52.1103 48.1212 52.1065 48.0699 52.097 48.0176C52.0884 47.9692 52.0751 47.9226 52.0609 47.877C52.0476 47.8324 52.0371 47.7896 52.0191 47.745C51.9991 47.6927 51.9725 47.6452 51.9469 47.5968C51.9317 47.5692 51.9231 47.5407 51.907 47.5132L43.6458 34.1448C43.6439 34.141 43.641 34.1391 43.6401 34.1372C43.5992 34.0726 43.5508 34.0127 43.5014 33.9557C43.4881 33.9405 43.4776 33.9225 43.4643 33.9073C43.3845 33.8237 43.2914 33.7534 43.1936 33.6888C43.1328 33.6498 43.071 33.6109 43.0045 33.5814C42.9808 33.5719 42.9542 33.5662 42.9285 33.5558C42.8639 33.532 42.7984 33.5073 42.7309 33.4912C42.7281 33.4912 42.7243 33.4893 42.7205 33.4893L32.8975 31.3166L17.9445 25.7572C17.9179 25.7477 17.8884 25.7439 17.8609 25.7354C17.8238 25.724 17.7868 25.7154 17.7488 25.7078C17.6661 25.6888 17.5844 25.6803 17.5027 25.6765C17.4809 25.6746 17.459 25.667 17.4372 25.667H17.4343C17.4258 25.667 17.4172 25.6708 17.4096 25.6708C17.2985 25.6727 17.1883 25.686 17.0809 25.7135C17.0543 25.7211 17.0296 25.7325 17.003 25.7411C16.9242 25.7648 16.8472 25.7952 16.7731 25.8342C16.738 25.8513 16.7047 25.8712 16.6724 25.8921C16.6069 25.933 16.5461 25.9795 16.4872 26.0299C16.4615 26.0536 16.433 26.0745 16.4093 26.0983C16.3304 26.1762 16.2592 26.2617 16.1993 26.3576C16.1974 26.3595 16.1955 26.3614 16.1946 26.3633L3.2147 47.5464C2.94015 47.9958 2.9278 48.5572 3.18525 49.018C3.44175 49.4778 3.9253 49.7637 4.45255 49.7656L30.5918 49.8768C30.5937 49.8768 30.5956 49.8768 30.5975 49.8768C30.6004 49.8768 30.6042 49.8768 30.607 49.8768H30.608L50.6786 49.7381C50.6834 49.7381 50.6881 49.7362 50.6929 49.7362C50.7746 49.7343 50.8563 49.7248 50.937 49.7105C50.9598 49.7067 50.9817 49.701 51.0035 49.6972C51.0786 49.6782 51.1536 49.6564 51.2268 49.625C51.2334 49.6231 51.242 49.6212 51.2486 49.6174C51.3113 49.5899 51.374 49.5585 51.4339 49.5205C51.4434 49.5148 51.451 49.5053 51.4586 49.5006C51.5042 49.4711 51.546 49.4379 51.5878 49.4018C51.621 49.3742 51.6562 49.3495 51.6866 49.3201C51.7208 49.2868 51.7493 49.2498 51.7797 49.2127C51.8101 49.1776 51.8424 49.1424 51.8699 49.1035C51.8956 49.0645 51.9165 49.0237 51.9393 48.9828C51.9611 48.942 51.9858 48.903 52.0039 48.8603C52.0229 48.8156 52.0352 48.7691 52.0504 48.7225C52.0647 48.6798 52.0799 48.6351 52.0903 48.5905C52.0998 48.5477 52.1027 48.5031 52.1084 48.4584C52.115 48.4062 52.1226 48.3549 52.1236 48.3026C52.1236 48.2912 52.1274 48.2808 52.1274 48.2694C52.1245 48.2361 52.1169 48.2048 52.1141 48.1734ZM32.1688 34.14L41.4902 36.1996L48.0642 46.8387L31.406 46.9565L20.9085 29.9676L31.976 34.083C32.0377 34.1068 32.1033 34.1258 32.1688 34.14ZM15.9001 32.4205L13.717 46.889L7.0546 46.8615L15.9001 32.4205ZM16.7484 36.5711L16.7921 46.9023L15.1904 46.8966L16.7484 36.5711ZM18.2504 46.908L18.1829 31.1029L27.9755 46.9508L18.2504 46.908Z" fill="#FF1E18"/>
<path d="M12.7964 22.8389C15.0413 22.8389 16.9821 21.3161 17.5141 19.1368C17.5911 18.8214 17.4514 18.4946 17.1702 18.3321C16.89 18.1706 16.5356 18.2134 16.3029 18.4366C15.8706 18.8508 15.3044 19.0779 14.7088 19.0779C13.4367 19.0779 12.4022 18.0433 12.4022 16.7713C12.4022 15.8213 13.0007 14.9558 13.8899 14.6176C14.1929 14.5017 14.3839 14.2015 14.3573 13.8776C14.3316 13.5546 14.096 13.2876 13.7778 13.2221C13.4567 13.1556 13.1261 13.1223 12.7964 13.1223C10.1174 13.1223 7.9381 15.3016 7.9381 17.9797C7.9381 20.6596 10.1174 22.8389 12.7964 22.8389ZM11.4816 14.8456C11.1387 15.4185 10.9458 16.0816 10.9458 16.7722C10.9458 18.848 12.634 20.5361 14.7097 20.5361C14.8275 20.5361 14.9453 20.5314 15.0622 20.52C14.4561 21.0605 13.6581 21.3807 12.7974 21.3807C10.9221 21.3807 9.3973 19.8559 9.3973 17.9806C9.39635 16.5727 10.258 15.3605 11.4816 14.8456Z" fill="#FF1E18"/>
</g>
<defs>
<clipPath id="clip0_241_3152">
<rect width="64" height="64" fill="white"/>
</clipPath>
</defs>
</svg>
