<svg width="64" height="64" viewBox="0 0 64 64" fill="none" xmlns="http://www.w3.org/2000/svg">
<g clip-path="url(#clip0_241_3138)">
<path d="M61.6809 15.7707L54.461 8.55076C53.7262 7.81692 52.5345 7.81591 51.7997 8.55076L22.5134 37.8371L12.4976 27.8213C11.7919 27.1156 10.5421 27.1156 9.83632 27.8213L2.55113 35.1075C1.81629 35.8424 1.81629 37.035 2.55113 37.7698L21.116 56.3357C21.4693 56.689 21.9482 56.8868 22.4471 56.8868C22.9461 56.8868 23.4259 56.689 23.7783 56.3357L61.6809 18.432C62.0343 18.0796 62.2321 17.6008 62.2321 17.1018C62.2321 16.6019 62.0343 16.1241 61.6809 15.7707ZM22.4471 52.3422L6.54358 36.4387L11.1655 31.8158L21.1812 41.8295C21.9161 42.5644 23.1077 42.5644 23.8425 41.8295L53.1288 12.5442L57.6875 17.1018L22.4471 52.3422Z" fill="#FF9D26"/>
</g>
<defs>
<clipPath id="clip0_241_3138">
<rect width="64" height="64" fill="white"/>
</clipPath>
</defs>
</svg>
