<svg width="64" height="64" viewBox="0 0 64 64" fill="none" xmlns="http://www.w3.org/2000/svg">
<g clip-path="url(#clip0_241_3133)">
<path d="M48.8682 31.4943C48.8682 27.1047 47.1595 22.9775 44.0541 19.873C42.9702 18.7891 41.7605 17.8798 40.4604 17.1495V6.58549C40.4612 5.70988 39.7514 5 38.8758 5H26.183C25.3082 5 24.5983 5.70988 24.5983 6.58549V17.0432C23.2247 17.7903 21.952 18.7377 20.815 19.8738C17.7105 22.9766 16 27.1047 16 31.4943C16 35.8839 17.7096 40.0102 20.8123 43.113C21.9494 44.25 23.2247 45.1983 24.5975 45.9445V56.5901C24.5975 57.4648 25.3073 58.1747 26.1821 58.1747H38.874C39.7496 58.1747 40.4595 57.4648 40.4595 56.5901V45.8373C41.7596 45.107 42.9693 44.1968 44.0532 43.1138C47.1595 40.0111 48.8682 35.8839 48.8682 31.4943ZM27.7676 8.1701H37.2903V15.7865C35.7376 15.3088 34.106 15.0598 32.4345 15.0598C30.8304 15.0598 29.2635 15.2902 27.7667 15.7315L27.7676 8.1701ZM37.2903 55.0046H27.7676V47.2562C29.2635 47.6975 30.8313 47.9279 32.4345 47.9279C34.106 47.9279 35.7376 47.6789 37.2903 47.2003V55.0046ZM38.266 43.4107C38.2501 43.4178 38.2359 43.4276 38.2199 43.4338C36.4395 44.2988 34.4729 44.7569 32.4345 44.7569C30.4582 44.7569 28.5475 44.3262 26.8086 43.5118C26.8033 43.5091 26.798 43.5073 26.7927 43.5047C25.4217 42.8595 24.1579 41.9741 23.0545 40.8708C20.5491 38.3662 19.1692 35.0366 19.1692 31.4934C19.1692 27.9502 20.55 24.6197 23.0563 22.1143C24.1579 21.0127 25.419 20.1291 26.7883 19.4839C26.798 19.4804 26.806 19.4759 26.814 19.4724C28.551 18.6588 30.4591 18.229 32.4345 18.229C34.4711 18.229 36.4359 18.6872 38.2137 19.5495C38.2323 19.5575 38.2474 19.5681 38.2669 19.5761C39.5635 20.2115 40.7608 21.0623 41.8128 22.1134C44.3182 24.6188 45.6981 27.9502 45.6981 31.4934C45.6981 35.0366 44.3182 38.368 41.8128 40.8725C40.7617 41.9245 39.5635 42.7744 38.266 43.4107Z" fill="#FF1E18"/>
<path d="M39.5573 30.795H33.3217V20.286C33.3217 19.8481 32.9672 19.4937 32.5294 19.4937C32.0916 19.4937 31.7362 19.8481 31.7362 20.286V31.5882C31.7362 32.0252 32.0907 32.3805 32.5294 32.3805H39.5573C39.9951 32.3805 40.3505 32.026 40.3505 31.5882C40.3505 31.1504 39.9951 30.795 39.5573 30.795Z" fill="#FF1E18"/>
</g>
<defs>
<clipPath id="clip0_241_3133">
<rect width="64" height="64" fill="white"/>
</clipPath>
</defs>
</svg>
