<svg width="64" height="64" viewBox="0 0 64 64" fill="none" xmlns="http://www.w3.org/2000/svg">
<path d="M58.6668 21.7653V21.9599C58.6668 24.2533 58.6668 25.4026 58.1148 26.3413C57.5628 27.2799 56.5575 27.8373 54.5522 28.9546L52.4375 30.1279C53.8935 25.1999 54.3815 19.9039 54.5602 15.3759L54.5868 14.7866L54.5922 14.6479C56.3282 15.2506 57.3042 15.7013 57.9122 16.5439C58.6668 17.5919 58.6668 18.9839 58.6668 21.7653ZM5.3335 21.7653V21.9599C5.3335 24.2533 5.3335 25.4026 5.8855 26.3413C6.4375 27.2799 7.44283 27.8373 9.44816 28.9546L11.5655 30.1279C10.1068 25.1999 9.61883 19.9039 9.44016 15.3759L9.4135 14.7866L9.41083 14.6479C7.67216 15.2506 6.69616 15.7013 6.08816 16.5439C5.3335 17.5919 5.3335 18.9866 5.3335 21.7653Z" fill="url(#paint0_linear_299_2528)"/>
<path fill-rule="evenodd" clip-rule="evenodd" d="M31.9998 5.33339C36.7571 5.33339 40.6744 5.75206 43.6718 6.25872C46.7091 6.77072 48.2264 7.02672 49.4958 8.58939C50.7651 10.1521 50.6958 11.8401 50.5624 15.2161C50.1038 26.8134 47.6024 41.2961 33.9998 42.5761V52.0001H37.8131C38.4293 52.0004 39.0264 52.2142 39.5029 52.6051C39.9793 52.9959 40.3056 53.5398 40.4264 54.1441L40.9331 56.6667H47.9998C48.5302 56.6667 49.0389 56.8774 49.414 57.2525C49.7891 57.6276 49.9998 58.1363 49.9998 58.6667C49.9998 59.1972 49.7891 59.7059 49.414 60.0809C49.0389 60.456 48.5302 60.6667 47.9998 60.6667H15.9998C15.4693 60.6667 14.9606 60.456 14.5856 60.0809C14.2105 59.7059 13.9998 59.1972 13.9998 58.6667C13.9998 58.1363 14.2105 57.6276 14.5856 57.2525C14.9606 56.8774 15.4693 56.6667 15.9998 56.6667H23.0664L23.5731 54.1441C23.6939 53.5398 24.0202 52.9959 24.4967 52.6051C24.9731 52.2142 25.5702 52.0004 26.1864 52.0001H29.9998V42.5761C16.3998 41.2961 13.8984 26.8107 13.4398 15.2161C13.3038 11.8401 13.2371 10.1494 14.5064 8.58939C15.7731 7.02672 17.2904 6.77072 20.3278 6.25872C24.1859 5.62639 28.0901 5.31688 31.9998 5.33339ZM34.5384 16.5307L34.2771 16.0614C33.2638 14.2401 32.7571 13.3334 31.9998 13.3334C31.2424 13.3334 30.7358 14.2401 29.7224 16.0614L29.4611 16.5307C29.1731 17.0481 29.0291 17.3041 28.8051 17.4747C28.5784 17.6454 28.2984 17.7094 27.7384 17.8347L27.2318 17.9521C25.2638 18.3974 24.2798 18.6187 24.0451 19.3707C23.8104 20.1254 24.4824 20.9094 25.8238 22.4774L26.1704 22.8827C26.5518 23.3281 26.7438 23.5494 26.8291 23.8267C26.9144 24.1041 26.8851 24.4001 26.8291 24.9947L26.7758 25.5361C26.5731 27.6294 26.4718 28.6774 27.0824 29.1414C27.6958 29.6054 28.6184 29.1814 30.4611 28.3334L30.9358 28.1147C31.4611 27.8747 31.7224 27.7547 31.9998 27.7547C32.2771 27.7547 32.5384 27.8747 33.0638 28.1147L33.5384 28.3334C35.3811 29.1841 36.3038 29.6054 36.9171 29.1414C37.5304 28.6774 37.4264 27.6294 37.2238 25.5361L37.1704 24.9947C37.1144 24.4001 37.0851 24.1041 37.1704 23.8267C37.2558 23.5521 37.4478 23.3281 37.8291 22.8827L38.1758 22.4774C39.5171 20.9094 40.1891 20.1254 39.9544 19.3707C39.7198 18.6187 38.7358 18.3974 36.7678 17.9521L36.2611 17.8347C35.7011 17.7094 35.4211 17.6481 35.1944 17.4747C34.9704 17.3041 34.8264 17.0481 34.5384 16.5307Z" fill="url(#paint1_linear_299_2528)"/>
<defs>
<linearGradient id="paint0_linear_299_2528" x1="32.0002" y1="14.6479" x2="32.0002" y2="30.1279" gradientUnits="userSpaceOnUse">
<stop stop-color="#F4DE17"/>
<stop offset="1" stop-color="#ED7911"/>
</linearGradient>
<linearGradient id="paint1_linear_299_2528" x1="32.0005" y1="5.33276" x2="32.0005" y2="60.6667" gradientUnits="userSpaceOnUse">
<stop stop-color="#F4DE17"/>
<stop offset="1" stop-color="#ED7911"/>
</linearGradient>
</defs>
</svg>
