<svg width="64" height="64" viewBox="0 0 64 64" fill="none" xmlns="http://www.w3.org/2000/svg">
<path d="M54.853 39.6266L58.6663 35.8133L54.853 31.9999L45.333 41.5199L22.4797 18.6666L31.9997 9.14659L28.1863 5.33325L24.373 9.14659L20.5597 5.33325L14.853 11.0399L11.0397 7.22659L7.22634 11.0399L11.0397 14.8533L5.33301 20.5599L9.14634 24.3733L5.33301 28.1866L9.14634 31.9999L18.6663 22.4799L41.5197 45.3332L31.9997 54.8532L35.813 58.6666L39.6263 54.8532L43.4397 58.6666L49.1463 52.9599L52.9597 56.7733L56.773 52.9599L52.9597 49.1466L58.6663 43.4399L54.853 39.6266Z" fill="url(#paint0_linear_299_738)"/>
<defs>
<linearGradient id="paint0_linear_299_738" x1="31.9997" y1="5.33325" x2="31.9997" y2="58.6666" gradientUnits="userSpaceOnUse">
<stop stop-color="#ADCF0D"/>
<stop offset="1" stop-color="#0B854A"/>
</linearGradient>
</defs>
</svg>
