<svg width="64" height="64" viewBox="0 0 64 64" fill="none" xmlns="http://www.w3.org/2000/svg">
<path d="M62.2125 51.2654H59.3537V11.5059C59.3537 10.6743 58.6794 10 57.8478 10H49.5157C48.6842 10 48.0099 10.6743 48.0099 11.5059V51.2654H45.0683V33.672C45.0683 32.8416 44.3939 32.1672 43.5635 32.1672H35.2303C34.3988 32.1672 33.7255 32.8416 33.7255 33.672V51.2644H30.9825V24.9948C30.9825 24.1633 30.3082 23.49 29.4777 23.49H21.1446C20.3131 23.49 19.6387 24.1633 19.6387 24.9948V51.2644H16.4996V37.2869C16.4996 36.4565 15.8252 35.7821 14.9948 35.7821H6.66376C5.83225 35.7821 5.15791 36.4565 5.15791 37.2869V51.2654H1.50585C0.674341 51.2654 0 51.9387 0 52.7702C0 53.6017 0.674341 54.2761 1.50585 54.2761H6.66376H14.9959H21.1456H29.4788H35.2314H43.5646H49.5157H57.8478H62.2125C63.0429 54.2761 63.7173 53.6017 63.7173 52.7702C63.7173 51.9387 63.0429 51.2654 62.2125 51.2654ZM8.16855 51.2654V38.7928H13.49V51.2654H8.16855ZM22.6504 51.2654V26.5006H27.974V51.2654H22.6504ZM36.7373 51.2654V35.1768H42.0598V51.2644L36.7373 51.2654ZM51.0205 51.2654V13.0096H56.3441V51.2644L51.0205 51.2654Z" fill="#FF1E18"/>
</svg>
