<svg width="64" height="64" viewBox="0 0 64 64" fill="none" xmlns="http://www.w3.org/2000/svg">
<g clip-path="url(#clip0_241_3142)">
<path d="M55.7349 56.6593H53.621V25.084C53.621 24.3279 53.0072 23.7131 52.2492 23.7131H45.5979C44.8408 23.7131 44.228 24.3269 44.228 25.084V56.6593H42.2155V30.0874C42.2155 29.3303 41.6035 28.7165 40.8456 28.7165H34.1942C33.4372 28.7165 32.8225 29.3294 32.8225 30.0874V56.6584H30.9699V37.7552C30.9699 36.9982 30.358 36.3844 29.6 36.3844H22.9468C22.1898 36.3844 21.5769 36.9973 21.5769 37.7552V56.6593H19.4081V45.6676C19.4081 44.9106 18.7943 44.2968 18.0364 44.2968H11.3832C10.628 44.2968 10.0133 44.9097 10.0133 45.6676V56.6584H7.26512C6.5081 56.6584 5.89523 57.2722 5.89523 58.0292C5.89616 58.7872 6.5081 59.4 7.26512 59.4H11.3832H18.0364H22.9459H29.5991H34.1923H40.8437H45.5951H52.2464H55.7321C56.4891 59.4 57.102 58.7872 57.102 58.0292C57.1038 57.2731 56.4919 56.6593 55.7349 56.6593ZM12.7549 56.6593V47.0385H16.6674V56.6593H12.7549ZM24.3176 56.6593V39.1251H28.2283V56.6593H24.3176ZM35.5632 56.6593V31.4582H39.4738V56.6593H35.5632ZM46.9687 56.6593V26.4538H50.8793V56.6593H46.9687Z" fill="#00B032"/>
<path d="M13.2655 34.8844C13.5473 34.8844 13.8319 34.7969 14.0774 34.6175L47.7099 9.83575L45.57 21.1399L48.2651 21.6467L51.322 5.47312L34.968 3.6001L34.6536 6.325L46.0787 7.63165L12.4517 32.4106C11.8417 32.8598 11.7124 33.7172 12.1616 34.3273C12.4294 34.6919 12.8433 34.8844 13.2655 34.8844Z" fill="#00B032"/>
</g>
<defs>
<clipPath id="clip0_241_3142">
<rect width="64" height="64" fill="white"/>
</clipPath>
</defs>
</svg>
