<svg width="64" height="64" viewBox="0 0 64 64" fill="none" xmlns="http://www.w3.org/2000/svg">
<g clip-path="url(#clip0_241_3147)">
<path d="M47.3123 8.53784C41.8594 8.53784 37.1311 11.8831 34.8601 16.736C32.589 11.8831 27.8608 8.53784 22.4078 8.53784C14.7502 8.53784 8.52013 15.1352 8.52013 23.2443C8.52013 27.3122 10.015 31.1148 12.6217 33.6769C13.186 34.2333 14.0958 34.2254 14.6512 33.6591C15.2076 33.0948 15.1997 32.186 14.6334 31.6296C12.5722 29.6041 11.3911 26.5469 11.3911 23.2433C11.3911 16.7162 16.3332 11.4059 22.4078 11.4059C28.4825 11.4059 33.4246 16.7162 33.4246 23.2433C33.4246 24.0363 34.0671 24.6778 34.8601 24.6778C35.6531 24.6778 36.2946 24.0363 36.2946 23.2433C36.2946 16.7162 41.2367 11.4059 47.3123 11.4059C53.3879 11.4059 58.33 16.7162 58.33 23.2433C58.33 26.5628 57.1271 29.6407 55.0293 31.688C50.6961 35.9173 38.435 47.63 34.8591 51.0435C32.4316 48.7309 26.0075 42.6057 20.7971 37.5963C20.2249 37.0479 19.3171 37.0667 18.7676 37.6369C18.2182 38.2081 18.236 39.117 18.8082 39.6664C25.3432 45.948 33.7859 53.9858 33.8701 54.066C34.1473 54.3303 34.5037 54.461 34.8601 54.461C35.2165 54.461 35.5739 54.3293 35.8501 54.065C36.0114 53.9125 51.9524 38.7031 57.0341 33.7423C59.6813 31.1593 61.2 27.333 61.2 23.2443C61.2 15.1352 54.9699 8.53784 47.3123 8.53784Z" fill="#2D6AA1"/>
<path d="M22.1782 35.9708L24.6274 28.2706L28.2281 41.3822C28.3429 41.798 28.7211 42.0851 29.1507 42.0851C29.1527 42.0851 29.1557 42.0851 29.1587 42.0851C29.5923 42.0821 29.9685 41.7871 30.0774 41.3663L32.0297 33.7701L32.7137 35.5382C32.8573 35.9075 33.2117 36.15 33.6057 36.15H40.1189C40.6476 36.15 41.0763 35.7214 41.0763 35.1927C41.0763 34.665 40.6476 34.2364 40.1189 34.2364H34.2621L32.785 30.4189C32.6415 30.0506 32.2871 29.8081 31.893 29.8081C31.8861 29.8081 31.8782 29.8081 31.8713 29.8081C31.4683 29.818 31.1129 30.0793 30.9852 30.4625L30.6427 31.4901C30.6357 31.5109 30.6288 31.5327 30.6229 31.5544L29.12 37.4034L25.6164 24.6472C25.5036 24.2383 25.1363 23.9532 24.7126 23.9433C24.2958 23.9344 23.9097 24.2067 23.782 24.6106L20.5655 34.7224H2.75634C2.22867 34.7234 1.8 35.1511 1.8 35.6808C1.8 36.2084 2.22867 36.6371 2.75634 36.6371H21.2664C21.6832 36.6361 22.0524 36.3678 22.1782 35.9708Z" fill="#2D6AA1"/>
</g>
<defs>
<clipPath id="clip0_241_3147">
<rect width="64" height="64" fill="white"/>
</clipPath>
</defs>
</svg>
