<svg width="64" height="64" viewBox="0 0 64 64" fill="none" xmlns="http://www.w3.org/2000/svg">
<path d="M39.9999 20C40.024 21.0654 39.835 22.1248 39.444 23.1161C39.053 24.1075 38.4679 25.0107 37.7231 25.7727C36.9782 26.5348 36.0886 27.1404 35.1065 27.5539C34.1244 27.9675 33.0696 28.1806 32.004 28.1809C30.9383 28.1812 29.8834 27.9685 28.9011 27.5555C27.9187 27.1424 27.0288 26.5373 26.2836 25.7756C25.5384 25.0139 24.9528 24.111 24.5614 23.1199C24.1699 22.1287 23.9803 21.0694 24.0039 20.004C24.0501 17.9138 24.9128 15.9247 26.4073 14.4626C27.9017 13.0004 29.9092 12.1814 32 12.1809C34.0907 12.1804 36.0986 12.9984 37.5938 14.4598C39.089 15.9212 39.9526 17.9098 39.9999 20Z" fill="url(#paint0_linear_299_2675)"/>
<path d="M51.1596 41.28L40.7596 30.76C39.8981 29.8845 38.8707 29.1896 37.7374 28.7157C36.6042 28.2418 35.3879 27.9985 34.1596 28H29.8756C27.2836 28 24.9356 29.056 23.2396 30.76L12.8396 41.28C12.4567 41.5063 12.1306 41.8171 11.8861 42.1886C11.6416 42.5601 11.4852 42.9826 11.4288 43.4238C11.3725 43.865 11.4176 44.3132 11.5609 44.7343C11.7041 45.1553 11.9417 45.5381 12.2554 45.8534C12.5691 46.1687 12.9507 46.4081 13.371 46.5535C13.7914 46.6988 14.2394 46.7463 14.6808 46.6921C15.1223 46.6379 15.5455 46.4837 15.9183 46.241C16.291 45.9984 16.6034 45.6738 16.8316 45.292L23.9996 38.12V64H29.9996V48H33.9996V64H39.9996V38.12L46.9996 45.32C47.2497 45.6482 47.5666 45.9196 47.9292 46.1165C48.2919 46.3133 48.6921 46.431 49.1036 46.4619C49.515 46.4928 49.9284 46.4361 50.3163 46.2956C50.7043 46.1551 51.0581 45.934 51.3544 45.6468C51.6506 45.3596 51.8827 45.0129 52.0352 44.6295C52.1878 44.2461 52.2573 43.8348 52.2393 43.4226C52.2213 43.0103 52.1161 42.6066 51.9307 42.238C51.7453 41.8694 51.4838 41.5442 51.1636 41.284L51.1596 41.28Z" fill="url(#paint1_linear_299_2675)"/>
<defs>
<linearGradient id="paint0_linear_299_2675" x1="32.002" y1="12.1809" x2="32.002" y2="28.1809" gradientUnits="userSpaceOnUse">
<stop stop-color="#F4DE17"/>
<stop offset="1" stop-color="#ED7911"/>
</linearGradient>
<linearGradient id="paint1_linear_299_2675" x1="31.8237" y1="28" x2="31.8237" y2="64" gradientUnits="userSpaceOnUse">
<stop stop-color="#F4DE17"/>
<stop offset="1" stop-color="#ED7911"/>
</linearGradient>
</defs>
</svg>
