<svg width="64" height="64" viewBox="0 0 64 64" fill="none" xmlns="http://www.w3.org/2000/svg">
<g clip-path="url(#clip0_241_3129)">
<path d="M59.6259 3.20189C59.6219 3.15833 59.6239 3.11675 59.616 3.07319C59.614 3.06428 59.612 3.05735 59.6101 3.05042C59.5982 2.99003 59.5814 2.93558 59.5616 2.87816C59.5497 2.83757 59.5408 2.795 59.5249 2.75639C59.5041 2.70491 59.4764 2.6564 59.4477 2.60888C59.4279 2.56829 59.4091 2.52869 59.3863 2.49305C59.3556 2.44553 59.321 2.40593 59.2853 2.36435C59.2586 2.3297 59.2329 2.29604 59.2022 2.26238C59.1636 2.22179 59.117 2.18714 59.0725 2.15249C59.0418 2.12576 59.0121 2.09804 58.9794 2.07527C58.9329 2.0426 58.8804 2.01686 58.8309 1.99013C58.7943 1.97033 58.7616 1.94756 58.723 1.93073C58.6765 1.90994 58.626 1.89707 58.5785 1.88123C58.532 1.86539 58.4854 1.84757 58.4349 1.83668C58.3943 1.82678 58.3498 1.82579 58.3052 1.81886C58.2498 1.81292 58.1914 1.80302 58.131 1.80203C58.1241 1.80203 58.1162 1.80005 58.1082 1.80005C58.0637 1.80005 58.0231 1.80896 57.9805 1.81292C57.938 1.81688 57.8934 1.81391 57.8489 1.82183L21.6614 8.01725C21.6535 8.01923 21.6475 8.02319 21.6406 8.02418C21.5802 8.03507 21.5267 8.05388 21.4703 8.07071C21.4277 8.08457 21.3852 8.09348 21.3446 8.10932C21.2961 8.13011 21.2515 8.15684 21.205 8.1806C21.1624 8.20238 21.1179 8.22317 21.0793 8.24792C21.0387 8.27465 21.004 8.30732 20.9654 8.33702C20.9268 8.3687 20.8862 8.3984 20.8516 8.43404C20.8149 8.4677 20.7862 8.5073 20.7526 8.54393C20.7239 8.58155 20.6892 8.6162 20.6615 8.6558C20.6328 8.69837 20.611 8.74292 20.5862 8.78747C20.5635 8.83004 20.5377 8.86964 20.5189 8.9132C20.4991 8.95775 20.4882 9.00428 20.4724 9.04982C20.4546 9.09932 20.4377 9.14783 20.4259 9.19733C20.416 9.24089 20.414 9.28544 20.408 9.329C20.4001 9.38741 20.3922 9.44285 20.3902 9.50225C20.3902 9.51116 20.3882 9.51908 20.3882 9.52601V43.9483C18.5785 42.194 16.1174 41.108 13.4038 41.108C7.86375 41.108 3.35925 45.6155 3.35925 51.1535C3.35925 56.6916 7.86573 61.2 13.4058 61.2C18.9458 61.2 23.4523 56.6926 23.4523 51.1545V23.786L56.5767 18.1143V37.7529C54.767 35.9986 52.3058 34.9136 49.5923 34.9136C44.0522 34.9136 39.5477 39.42 39.5477 44.9581C39.5477 50.4981 44.0532 55.0036 49.5923 55.0036C55.1313 55.0036 59.6388 50.4972 59.6388 44.9581V3.33158C59.6398 3.28604 59.6299 3.24446 59.6259 3.20189ZM13.4058 58.137C9.55566 58.137 6.42132 55.0046 6.42132 51.1535C6.42132 47.3024 9.55566 44.1701 13.4058 44.1701C17.2579 44.1701 20.3902 47.3024 20.3902 51.1535C20.3902 55.0046 17.2569 58.137 13.4058 58.137ZM23.4523 20.6793V10.818L56.5767 5.14724V15.0076L23.4523 20.6793ZM49.5923 51.9406C45.7421 51.9406 42.6098 48.8092 42.6098 44.9571C42.6098 41.106 45.7421 37.9737 49.5923 37.9737C53.4443 37.9737 56.5767 41.106 56.5767 44.9571C56.5767 48.8092 53.4443 51.9406 49.5923 51.9406Z" fill="#2D6AA1"/>
</g>
<defs>
<clipPath id="clip0_241_3129">
<rect width="64" height="64" fill="white"/>
</clipPath>
</defs>
</svg>
