<svg width="65" height="64" viewBox="0 0 65 64" fill="none" xmlns="http://www.w3.org/2000/svg">
<path fill-rule="evenodd" clip-rule="evenodd" d="M32.552 8C26.5293 8 21.0427 9.98933 17.796 11.6147C17.5027 11.7613 17.2293 11.9053 16.9747 12.044C16.4707 12.3187 16.0413 12.5747 15.7 12.8L19.3933 18.2373L21.132 18.9293C27.9267 22.3573 37.0387 22.3573 43.8347 18.9293L45.808 17.9053L49.3 12.8C48.5767 12.3281 47.8246 11.9019 47.048 11.524C43.8173 9.916 38.4613 8 32.5533 8M23.964 14.1547C22.6562 13.9099 21.3644 13.5858 20.096 13.184C23.1373 11.8333 27.6693 10.4 32.5533 10.4C35.936 10.4 39.1347 11.088 41.78 11.96C38.68 12.396 35.372 13.136 32.22 14.0467C29.74 14.764 26.8413 14.6867 23.964 14.1547ZM45.244 20.9067L44.916 21.072C37.4413 24.8427 27.5267 24.8427 20.052 21.072L19.7413 20.9147C8.51066 33.236 -0.0626707 55.996 32.552 55.996C65.1667 55.996 56.3853 32.8133 45.244 20.9067ZM31.1667 32C30.4594 32 29.7811 32.281 29.281 32.781C28.781 33.2811 28.5 33.9594 28.5 34.6667C28.5 35.3739 28.781 36.0522 29.281 36.5523C29.7811 37.0524 30.4594 37.3333 31.1667 37.3333V32ZM33.8333 29.3333V28H31.1667V29.3333C29.7522 29.3333 28.3956 29.8952 27.3954 30.8954C26.3952 31.8956 25.8333 33.2522 25.8333 34.6667C25.8333 36.0812 26.3952 37.4377 27.3954 38.4379C28.3956 39.4381 29.7522 40 31.1667 40V45.3333C30.0067 45.3333 29.0187 44.5933 28.6507 43.556C28.5961 43.3863 28.508 43.2292 28.3916 43.0942C28.2753 42.9591 28.133 42.8487 27.9733 42.7696C27.8135 42.6904 27.6395 42.6441 27.4616 42.6334C27.2836 42.6227 27.1053 42.6478 26.9372 42.7072C26.7691 42.7666 26.6146 42.8591 26.4829 42.9792C26.3512 43.0993 26.2449 43.2447 26.1703 43.4066C26.0958 43.5685 26.0544 43.7438 26.0487 43.922C26.0431 44.1001 26.0732 44.2777 26.1373 44.444C26.5051 45.484 27.1862 46.3843 28.0869 47.0212C28.9876 47.658 30.0636 48 31.1667 48V49.3333H33.8333V48C35.2478 48 36.6044 47.4381 37.6046 46.4379C38.6048 45.4377 39.1667 44.0812 39.1667 42.6667C39.1667 41.2522 38.6048 39.8956 37.6046 38.8954C36.6044 37.8952 35.2478 37.3333 33.8333 37.3333V32C34.9933 32 35.9813 32.74 36.3493 33.7773C36.4039 33.947 36.492 34.1041 36.6084 34.2392C36.7247 34.3742 36.867 34.4846 37.0267 34.5638C37.1865 34.6429 37.3605 34.6892 37.5384 34.6999C37.7164 34.7106 37.8947 34.6856 38.0628 34.6262C38.2309 34.5668 38.3854 34.4743 38.5171 34.3541C38.6488 34.234 38.7551 34.0887 38.8297 33.9267C38.9042 33.7648 38.9456 33.5896 38.9513 33.4114C38.9569 33.2332 38.9268 33.0557 38.8627 32.8893C38.4949 31.8494 37.8137 30.949 36.9131 30.3122C36.0124 29.6753 34.9364 29.3334 33.8333 29.3333ZM33.8333 40V45.3333C34.5406 45.3333 35.2189 45.0524 35.7189 44.5523C36.219 44.0522 36.5 43.3739 36.5 42.6667C36.5 41.9594 36.219 41.2811 35.7189 40.7811C35.2189 40.281 34.5406 40 33.8333 40Z" fill="url(#paint0_linear_161_347)"/>
<defs>
<linearGradient id="paint0_linear_161_347" x1="32.5024" y1="8" x2="32.5024" y2="55.996" gradientUnits="userSpaceOnUse">
<stop stop-color="#ADCF0D"/>
<stop offset="1" stop-color="#0B854A"/>
</linearGradient>
</defs>
</svg>
