<svg width="65" height="64" viewBox="0 0 65 64" fill="none" xmlns="http://www.w3.org/2000/svg">
<g clip-path="url(#clip0_161_572)">
<path fill-rule="evenodd" clip-rule="evenodd" d="M21.252 0.181659C12.3285 3.7119 7.06451 14.3692 10.788 29.5833C11.1087 30.9317 13.5483 32.8575 13.741 34.1413C13.869 35.4258 11.6866 36.0677 11.6226 37.2229C11.6226 39.534 11.2373 41.5884 10.788 43.4501L6.22995 42.3589C4.62483 44.2207 3.14835 45.9538 2.37779 47.8156C1.86451 49.1634 1.54323 50.7685 2.24979 52.3097C14.6402 60.0773 35.6322 63.8649 48.0866 63.9935C49.9477 64.0575 50.5896 63.6722 51.2322 62.3244C51.4242 61.8745 51.6815 61.2325 51.9381 60.462C52.516 58.9215 53.0933 56.8031 53.6072 54.1708C54.0565 51.6031 54.3778 48.5215 54.2491 45.3119C54.2491 43.6428 50.0763 42.4229 50.2043 40.6898C50.269 39.406 53.6712 37.6082 52.4514 35.1045C49.5631 29.1986 50.397 24.7045 52.1307 21.1097C53.7999 17.4501 57.2021 14.3045 62.2735 10.9023C63.7506 9.8751 63.3007 7.56406 61.5035 7.24342L22.3432 0.0530193C21.9579 -0.0749807 21.5727 0.0530193 21.252 0.181019M22.3432 4.16118L56.4315 10.3884C53.0293 13.0847 50.0763 15.909 48.4712 19.3759C46.2888 24.062 46.2888 28.8767 48.6639 35.6178C49.1778 37.1583 44.9403 39.662 45.1976 41.1385C45.4536 42.6789 50.0123 44.7333 50.0763 46.2098C50.1403 49.0988 50.0763 51.0892 49.6271 53.4642C49.2418 55.8393 48.7925 57.8297 48.1506 59.1775C47.5727 60.1407 45.9682 59.3061 45.3903 57.2517C44.7477 54.7481 45.069 53.4002 46.4815 51.4745C35.8888 50.5753 25.2962 48.3929 14.7042 44.4127C15.2815 42.4223 15.6667 41.2671 15.7307 38.6348C15.7307 37.3509 17.9131 37.2223 17.7211 35.7458C17.5931 34.2053 15.0888 30.2892 14.7042 28.6201C11.3013 14.9458 15.7307 7.05014 22.3432 4.16118ZM26.452 5.50902L23.3704 8.07734C22.0866 8.07734 20.8667 8.71926 20.0322 9.68182L17.2719 10.3237L19.005 12.1215C18.813 13.534 19.2616 15.0105 20.3535 15.973L20.0322 19.8252L22.7925 17.0649C24.205 17.1289 25.6175 16.5509 26.516 15.4597L28.8917 15.1385L27.6072 13.0201C27.7359 11.6076 27.2866 10.1311 26.2594 9.16854L26.452 5.50902ZM23.5631 10.773C23.6911 10.773 23.8843 10.773 24.0123 10.837C24.9755 11.2869 25.2322 12.5714 24.7189 13.4053C24.269 14.3039 23.0498 14.7538 22.2792 14.1113C21.316 13.4053 21.4447 11.9289 22.2792 11.2229C22.5999 10.9017 23.1138 10.709 23.5631 10.773ZM35.8248 16.3583L33.5778 17.7708L35.5042 20.9164L32.6146 22.3929L33.8344 24.7685L36.852 23.2274L39.2911 27.1436L41.5381 25.7311L39.2917 22.0076L42.9506 20.1458L41.7307 17.7708L37.8792 19.6972L35.8248 16.3583ZM29.6616 21.7509L28.3778 22.0076C26.9013 22.4569 25.4248 23.2274 24.269 24.3186L26.0667 26.309C27.2226 25.2178 28.6991 24.5759 30.2395 24.3186L29.6616 21.7509ZM22.4072 26.7589L21.8299 27.7861C21.4918 28.6717 21.1918 29.5713 20.9307 30.4825L20.7387 32.3442L23.4344 32.6009C23.4984 31.5737 23.6271 30.5465 24.0123 29.5839C24.1403 29.006 24.4616 28.5567 24.7189 28.1074L22.4072 26.7589ZM23.5631 34.7839L20.9954 35.4898C21.316 36.581 21.5727 37.7362 22.2152 38.6994C22.5359 39.47 22.9851 40.1119 23.4344 40.7538L25.6168 39.1487C24.9755 38.2501 24.3976 37.2876 24.0123 36.1957L23.5631 34.7839ZM27.2226 40.7538L25.6175 42.9362C27.0939 44.0921 28.8917 44.9266 30.6248 45.5685L31.652 43.1295C30.0469 42.4869 28.5064 41.845 27.2226 40.7538ZM34.1557 44.1561L33.0645 46.5957C34.4123 47.2377 35.7602 48.0722 36.5947 49.4207L38.8418 47.9442C38.3285 47.1097 37.6866 46.4677 36.916 45.8258C36.0584 45.1719 35.133 44.6121 34.1557 44.1561Z" fill="url(#paint0_linear_161_572)"/>
</g>
<defs>
<linearGradient id="paint0_linear_161_572" x1="32.5" y1="0" x2="32.5" y2="64.0002" gradientUnits="userSpaceOnUse">
<stop stop-color="#E40638"/>
<stop offset="1" stop-color="#E7050D"/>
</linearGradient>
<clipPath id="clip0_161_572">
<rect width="64" height="64" fill="white" transform="translate(0.5)"/>
</clipPath>
</defs>
</svg>
