<svg width="65" height="64" viewBox="0 0 65 64" fill="none" xmlns="http://www.w3.org/2000/svg">
<path d="M5.83337 58.6666V10.6666C5.83337 9.19992 6.35604 7.94481 7.40137 6.90125C8.44671 5.8577 9.70182 5.33503 11.1667 5.33325H53.8334C55.3 5.33325 56.556 5.85592 57.6014 6.90125C58.6467 7.94659 59.1685 9.2017 59.1667 10.6666V42.6666C59.1667 44.1333 58.6449 45.3893 57.6014 46.4346C56.5578 47.4799 55.3018 48.0017 53.8334 47.9999H16.5L5.83337 58.6666ZM24.7 37.9999L32.5 33.2666L40.3 37.9999L38.2334 29.1333L45.1667 23.1333L36.0334 22.3999L32.5 13.9999L28.9667 22.3999L19.8334 23.1333L26.7667 29.1333L24.7 37.9999Z" fill="url(#paint0_linear_161_1455)"/>
<defs>
<linearGradient id="paint0_linear_161_1455" x1="32.5" y1="5.33325" x2="32.5" y2="58.6666" gradientUnits="userSpaceOnUse">
<stop stop-color="#ADCF0D"/>
<stop offset="1" stop-color="#0B854A"/>
</linearGradient>
</defs>
</svg>
