<svg width="64" height="64" viewBox="0 0 64 64" fill="none" xmlns="http://www.w3.org/2000/svg">
<path d="M47.92 20.5301L43.315 21.0151L45.325 11.1951C45.5057 10.3104 45.9229 9.49118 46.5322 8.82469C47.1415 8.15819 47.92 7.66933 48.785 7.4101L58.03 4.6301C59.865 4.0801 61.715 5.4501 61.715 7.3701C61.715 9.1751 59.92 10.4351 58.225 9.8201L56.94 9.5301L51.76 11.0651C51.2563 11.2151 50.8007 11.4943 50.4384 11.875C50.0761 12.2557 49.8198 12.7246 49.695 13.2351L47.92 20.5301ZM43.145 41.3751L39.94 55.0001L36.045 53.6251L38.445 41.3751H43.145Z" fill="#65878D"/>
<path d="M40.88 51H9.42V55.165H40.17L40.88 51Z" fill="#65878D"/>
<path d="M0.975002 24.0399L4.68 42.0999C4.965 43.4999 6.195 44.4999 7.62 44.4999H41.88C42.1062 44.5001 42.3258 44.4235 42.5029 44.2827C42.68 44.142 42.8041 43.9453 42.855 43.7249L48.865 17.7199C49.02 17.0549 48.48 16.4399 47.8 16.4999L3.645 20.4499C3.22422 20.4874 2.81611 20.6134 2.44743 20.8197C2.07876 21.0259 1.75784 21.3078 1.50574 21.6467C1.25363 21.9857 1.07602 22.3742 0.984552 22.7866C0.893087 23.199 0.889833 23.6261 0.975002 24.0399ZM7.95 24.5849L10.08 24.3949C10.2876 24.3761 10.4969 24.4009 10.6944 24.4675C10.8919 24.5341 11.0734 24.6412 11.2272 24.7818C11.381 24.9225 11.5039 25.0937 11.5879 25.2845C11.6719 25.4753 11.7152 25.6815 11.715 25.8899V28.2999C11.715 29.1299 11.045 29.7999 10.215 29.7999H7.975C7.265 29.7999 6.65 29.2999 6.505 28.5999L6.175 26.9799C6.11659 26.7042 6.11741 26.4192 6.17741 26.1439C6.2374 25.8685 6.3552 25.609 6.52301 25.3826C6.69082 25.1562 6.90481 24.968 7.15081 24.8304C7.39682 24.6929 7.66923 24.6092 7.95 24.5849ZM27.055 33.7949H29.895C30.725 33.7949 31.395 34.4649 31.395 35.2949V38.4999C31.395 39.3299 30.725 39.9999 29.895 39.9999H27.055C26.225 39.9999 25.555 39.3299 25.555 38.4999V35.2949C25.555 34.4649 26.225 33.7949 27.055 33.7949ZM29.895 29.7949H27.055C26.225 29.7949 25.555 29.1249 25.555 28.2949V24.3799C25.555 23.6049 26.15 22.9549 26.92 22.8849L29.76 22.6299C29.9676 22.6111 30.1769 22.6359 30.3744 22.7025C30.5719 22.7691 30.7534 22.8762 30.9072 23.0168C31.061 23.1575 31.1839 23.3287 31.2679 23.5195C31.3519 23.7103 31.3952 23.9165 31.395 24.1249V28.2949C31.395 29.1249 30.725 29.7949 29.895 29.7949ZM21.555 35.2949V38.4999C21.555 39.3299 20.885 39.9999 20.055 39.9999H17.215C16.385 39.9999 15.715 39.3299 15.715 38.4999V35.2949C15.715 34.4649 16.385 33.7949 17.215 33.7949H20.055C20.885 33.7949 21.555 34.4649 21.555 35.2949ZM20.055 29.7949H17.215C16.385 29.7949 15.715 29.1249 15.715 28.2949V25.2599C15.715 24.4849 16.31 23.8349 17.08 23.7649L19.92 23.5099C20.1276 23.4911 20.3369 23.5159 20.5344 23.5825C20.7319 23.6491 20.9134 23.7562 21.0672 23.8968C21.221 24.0375 21.3439 24.2087 21.4279 24.3995C21.5119 24.5903 21.5552 24.7965 21.555 25.0049V28.2949C21.555 29.1249 20.885 29.7949 20.055 29.7949ZM42.925 23.4249L41.72 28.6299C41.6437 28.9599 41.4578 29.2542 41.1926 29.4649C40.9274 29.6756 40.5987 29.7901 40.26 29.7899H36.895C36.065 29.7899 35.395 29.1199 35.395 28.2899V23.4999C35.395 22.7249 35.99 22.0749 36.76 22.0049L41.325 21.5949C42.345 21.5049 43.155 22.4349 42.925 23.4249ZM37.505 39.9999H36.4C35.85 39.9999 35.4 39.5499 35.4 38.9999V35.2949C35.4 34.4649 36.07 33.7949 36.9 33.7949H38.645C39.61 33.7949 40.325 34.6949 40.105 35.6349L39.455 38.4549C39.3514 38.8944 39.1025 39.286 38.7486 39.5664C38.3947 39.8468 37.9565 39.9996 37.505 39.9999ZM7.875 35.2799C7.715 34.5099 8.305 33.7899 9.09 33.7899H10.215C11.045 33.7899 11.715 34.4599 11.715 35.2899V38.7549C11.715 39.0838 11.5844 39.3992 11.3518 39.6317C11.1193 39.8643 10.8039 39.9949 10.475 39.9949C9.525 39.9949 8.705 39.3249 8.515 38.3949L7.875 35.2799Z" fill="#FAC136"/>
<path d="M37.77 58.665C40.8076 58.665 43.27 56.2026 43.27 53.165C43.27 50.1275 40.8076 47.665 37.77 47.665C34.7324 47.665 32.27 50.1275 32.27 53.165C32.27 56.2026 34.7324 58.665 37.77 58.665Z" fill="#2F2F2F"/>
<path d="M37.77 55.7301C39.1866 55.7301 40.335 54.5817 40.335 53.1651C40.335 51.7485 39.1866 50.6001 37.77 50.6001C36.3534 50.6001 35.205 51.7485 35.205 53.1651C35.205 54.5817 36.3534 55.7301 37.77 55.7301Z" fill="#65878D"/>
<path d="M11.35 58.665C14.3876 58.665 16.85 56.2026 16.85 53.165C16.85 50.1275 14.3876 47.665 11.35 47.665C8.31244 47.665 5.85001 50.1275 5.85001 53.165C5.85001 56.2026 8.31244 58.665 11.35 58.665Z" fill="#2F2F2F"/>
<path d="M11.35 55.7301C12.7666 55.7301 13.915 54.5817 13.915 53.1651C13.915 51.7485 12.7666 50.6001 11.35 50.6001C9.93339 50.6001 8.785 51.7485 8.785 53.1651C8.785 54.5817 9.93339 55.7301 11.35 55.7301Z" fill="#65878D"/>
<path d="M59.295 11.8299C61.3412 11.8299 63 10.1711 63 8.12492C63 6.07871 61.3412 4.41992 59.295 4.41992C57.2488 4.41992 55.59 6.07871 55.59 8.12492C55.59 10.1711 57.2488 11.8299 59.295 11.8299Z" fill="#65878D"/>
</svg>
