<svg width="64" height="64" viewBox="0 0 64 64" fill="none" xmlns="http://www.w3.org/2000/svg">
<mask id="path-1-inside-1_299_960" fill="white">
<path d="M32.0002 2.66675V5.33341L29.9468 3.62675L20.6935 14.6667L29.3335 20.0001V13.7601L28.7468 13.3334L32.0002 9.49341V61.3334H37.3335V35.3067L42.4802 30.1601C49.3335 31.2267 56.3468 27.6267 60.4268 23.5467L56.6402 19.7601C53.6002 22.8267 47.2002 25.6267 42.6668 24.6934L37.3335 19.3067V2.66675M45.3335 10.6667C43.919 10.6667 42.5624 11.2287 41.5623 12.2288C40.5621 13.229 40.0002 14.5856 40.0002 16.0001C40.0002 17.4146 40.5621 18.7711 41.5623 19.7713C42.5624 20.7715 43.919 21.3334 45.3335 21.3334C46.748 21.3334 48.1045 20.7715 49.1047 19.7713C50.1049 18.7711 50.6668 17.4146 50.6668 16.0001C50.6668 14.5856 50.1049 13.229 49.1047 12.2288C48.1045 11.2287 46.748 10.6667 45.3335 10.6667ZM29.3335 20.6934L18.9335 31.0934C14.0002 36.0001 11.4935 39.6001 8.16016 48.4268L13.1735 50.2934C15.8402 43.2001 17.7602 40.3734 20.9868 36.9067L24.5868 40.5067L11.3868 53.7067L15.1735 57.4934L29.3335 43.3067V20.6934Z"/>
</mask>
<path d="M32.0002 2.66675V5.33341L29.9468 3.62675L20.6935 14.6667L29.3335 20.0001V13.7601L28.7468 13.3334L32.0002 9.49341V61.3334H37.3335V35.3067L42.4802 30.1601C49.3335 31.2267 56.3468 27.6267 60.4268 23.5467L56.6402 19.7601C53.6002 22.8267 47.2002 25.6267 42.6668 24.6934L37.3335 19.3067V2.66675M45.3335 10.6667C43.919 10.6667 42.5624 11.2287 41.5623 12.2288C40.5621 13.229 40.0002 14.5856 40.0002 16.0001C40.0002 17.4146 40.5621 18.7711 41.5623 19.7713C42.5624 20.7715 43.919 21.3334 45.3335 21.3334C46.748 21.3334 48.1045 20.7715 49.1047 19.7713C50.1049 18.7711 50.6668 17.4146 50.6668 16.0001C50.6668 14.5856 50.1049 13.229 49.1047 12.2288C48.1045 11.2287 46.748 10.6667 45.3335 10.6667ZM29.3335 20.6934L18.9335 31.0934C14.0002 36.0001 11.4935 39.6001 8.16016 48.4268L13.1735 50.2934C15.8402 43.2001 17.7602 40.3734 20.9868 36.9067L24.5868 40.5067L11.3868 53.7067L15.1735 57.4934L29.3335 43.3067V20.6934Z" fill="url(#paint0_linear_299_960)"/>
<path d="M32.0002 5.33341L31.361 6.10245L33.0002 7.46491V5.33341H32.0002ZM29.9468 3.62675L30.586 2.85771L29.8201 2.22114L29.1804 2.98438L29.9468 3.62675ZM20.6935 14.6667L19.9271 14.0244L19.1844 14.9104L20.1682 15.5177L20.6935 14.6667ZM29.3335 20.0001L28.8082 20.851L30.3335 21.7925V20.0001H29.3335ZM29.3335 13.7601H30.3335V13.2509L29.9217 12.9513L29.3335 13.7601ZM28.7468 13.3334L27.9838 12.687L27.2877 13.5087L28.1586 14.1422L28.7468 13.3334ZM32.0002 9.49341H33.0002V6.7661L31.2372 8.847L32.0002 9.49341ZM32.0002 61.3334H31.0002V62.3334H32.0002V61.3334ZM37.3335 61.3334V62.3334H38.3335V61.3334H37.3335ZM37.3335 35.3067L36.6264 34.5996L36.3335 34.8925V35.3067H37.3335ZM42.4802 30.1601L42.6339 29.172L42.1321 29.0939L41.773 29.453L42.4802 30.1601ZM60.4268 23.5467L61.1339 24.2539L61.841 23.5467L61.1339 22.8396L60.4268 23.5467ZM56.6402 19.7601L57.3473 19.053L56.6371 18.3428L55.93 19.0561L56.6402 19.7601ZM42.6668 24.6934L41.9562 25.397L42.169 25.6119L42.4652 25.6729L42.6668 24.6934ZM37.3335 19.3067H36.3335V19.7181L36.6229 20.0103L37.3335 19.3067ZM45.3335 10.6667V9.66675V10.6667ZM45.3335 21.3334V22.3334V21.3334ZM29.3335 20.6934H30.3335V18.2792L28.6264 19.9863L29.3335 20.6934ZM18.9335 31.0934L19.6387 31.8024L19.6406 31.8005L18.9335 31.0934ZM8.16016 48.4268L7.22464 48.0735L6.86971 49.0133L7.81122 49.3639L8.16016 48.4268ZM13.1735 50.2934L12.8246 51.2306L13.7587 51.5784L14.1095 50.6453L13.1735 50.2934ZM20.9868 36.9067L21.6939 36.1996L20.961 35.4667L20.2548 36.2254L20.9868 36.9067ZM24.5868 40.5067L25.2939 41.2139L26.001 40.5067L25.2939 39.7996L24.5868 40.5067ZM11.3868 53.7067L10.6797 52.9996L9.97261 53.7067L10.6797 54.4139L11.3868 53.7067ZM15.1735 57.4934L14.4664 58.2005L15.1742 58.9083L15.8813 58.1999L15.1735 57.4934ZM29.3335 43.3067L30.0413 44.0132L30.3335 43.7204V43.3067H29.3335ZM31.0002 2.66675V5.33341H33.0002V2.66675H31.0002ZM32.6394 4.56438L30.586 2.85771L29.3076 4.39579L31.361 6.10245L32.6394 4.56438ZM29.1804 2.98438L19.9271 14.0244L21.4599 15.3091L30.7132 4.26911L29.1804 2.98438ZM20.1682 15.5177L28.8082 20.851L29.8588 19.1491L21.2188 13.8158L20.1682 15.5177ZM30.3335 20.0001V13.7601H28.3335V20.0001H30.3335ZM29.9217 12.9513L29.335 12.5247L28.1586 14.1422L28.7453 14.5688L29.9217 12.9513ZM29.5098 13.9798L32.7631 10.1398L31.2372 8.847L27.9838 12.687L29.5098 13.9798ZM31.0002 9.49341V61.3334H33.0002V9.49341H31.0002ZM32.0002 62.3334H37.3335V60.3334H32.0002V62.3334ZM38.3335 61.3334V35.3067H36.3335V61.3334H38.3335ZM38.0406 36.0139L43.1873 30.8672L41.773 29.453L36.6264 34.5996L38.0406 36.0139ZM42.3264 31.1482C49.595 32.2795 56.9108 28.477 61.1339 24.2539L59.7197 22.8396C55.7828 26.7765 49.072 30.174 42.6339 29.172L42.3264 31.1482ZM61.1339 22.8396L57.3473 19.053L55.933 20.4672L59.7197 24.2539L61.1339 22.8396ZM55.93 19.0561C54.531 20.4673 52.3018 21.8644 49.8586 22.7918C47.4057 23.7229 44.8775 24.1276 42.8685 23.714L42.4652 25.6729C44.9895 26.1926 47.928 25.6639 50.5684 24.6617C53.2185 23.6557 55.7093 22.1195 57.3503 20.4641L55.93 19.0561ZM43.3774 23.9898L38.0441 18.6032L36.6229 20.0103L41.9562 25.397L43.3774 23.9898ZM38.3335 19.3067V2.66675H36.3335V19.3067H38.3335ZM45.3335 9.66675C43.6538 9.66675 42.0429 10.334 40.8551 11.5217L42.2694 12.936C43.082 12.1233 44.1842 11.6667 45.3335 11.6667V9.66675ZM40.8551 11.5217C39.6674 12.7095 39.0002 14.3204 39.0002 16.0001H41.0002C41.0002 14.8508 41.4567 13.7486 42.2694 12.936L40.8551 11.5217ZM39.0002 16.0001C39.0002 17.6798 39.6674 19.2907 40.8551 20.4784L42.2694 19.0642C41.4567 18.2516 41.0002 17.1494 41.0002 16.0001H39.0002ZM40.8551 20.4784C42.0429 21.6662 43.6538 22.3334 45.3335 22.3334V20.3334C44.1842 20.3334 43.082 19.8769 42.2694 19.0642L40.8551 20.4784ZM45.3335 22.3334C47.0132 22.3334 48.6241 21.6662 49.8118 20.4784L48.3976 19.0642C47.585 19.8769 46.4828 20.3334 45.3335 20.3334V22.3334ZM49.8118 20.4784C50.9996 19.2907 51.6668 17.6798 51.6668 16.0001H49.6668C49.6668 17.1494 49.2103 18.2516 48.3976 19.0642L49.8118 20.4784ZM51.6668 16.0001C51.6668 14.3204 50.9996 12.7095 49.8118 11.5217L48.3976 12.936C49.2103 13.7486 49.6668 14.8508 49.6668 16.0001H51.6668ZM49.8118 11.5217C48.6241 10.334 47.0132 9.66675 45.3335 9.66675V11.6667C46.4828 11.6667 47.585 12.1233 48.3976 12.936L49.8118 11.5217ZM28.6264 19.9863L18.2264 30.3863L19.6406 31.8005L30.0406 21.4005L28.6264 19.9863ZM18.2283 30.3844C15.7329 32.8663 13.817 35.0517 12.1024 37.7544C10.3915 40.4512 8.90358 43.6276 7.22464 48.0735L9.09567 48.78C10.7501 44.3992 12.1821 41.3623 13.7912 38.8258C15.3966 36.2952 17.2007 34.2272 19.6387 31.8024L18.2283 30.3844ZM7.81122 49.3639L12.8246 51.2306L13.5224 49.3563L8.50909 47.4896L7.81122 49.3639ZM14.1095 50.6453C16.7372 43.6557 18.5934 40.9459 21.7188 37.5881L20.2548 36.2254C16.9269 39.8009 14.9431 42.7445 12.2375 49.9415L14.1095 50.6453ZM20.2797 37.6139L23.8797 41.2139L25.2939 39.7996L21.6939 36.1996L20.2797 37.6139ZM23.8797 39.7996L10.6797 52.9996L12.0939 54.4139L25.2939 41.2139L23.8797 39.7996ZM10.6797 54.4139L14.4664 58.2005L15.8806 56.7863L12.0939 52.9996L10.6797 54.4139ZM15.8813 58.1999L30.0413 44.0132L28.6257 42.6003L14.4657 56.787L15.8813 58.1999ZM30.3335 43.3067V20.6934H28.3335V43.3067H30.3335Z" fill="url(#paint1_linear_299_960)" mask="url(#path-1-inside-1_299_960)"/>
<defs>
<linearGradient id="paint0_linear_299_960" x1="34.2935" y1="2.66675" x2="34.2935" y2="61.3334" gradientUnits="userSpaceOnUse">
<stop stop-color="#E40638"/>
<stop offset="1" stop-color="#E7050D"/>
</linearGradient>
<linearGradient id="paint1_linear_299_960" x1="34.2935" y1="2.66675" x2="34.2935" y2="61.3334" gradientUnits="userSpaceOnUse">
<stop stop-color="#E40638"/>
<stop offset="1" stop-color="#E7050D"/>
</linearGradient>
</defs>
</svg>
