<svg width="64" height="64" viewBox="0 0 64 64" fill="none" xmlns="http://www.w3.org/2000/svg">
<path d="M59.4756 39.8743L59.4754 39.8742L53.9492 34.9527C53.9491 34.9527 53.9491 34.9526 53.949 34.9526C52.1258 33.3298 52.1257 30.648 53.9489 29.0251L59.4756 39.8743ZM59.4756 39.8743C60.2042 40.5228 60.3684 41.1101 60.2746 41.5126C60.1811 41.9139 59.7764 42.3648 58.8394 42.618C58.8393 42.6181 58.8392 42.6181 58.8391 42.6181L53.9018 43.9492L53.9017 43.9493C51.6063 44.5685 49.8694 46.9947 49.9934 49.3827L49.9935 49.3837L50.2719 54.558C50.2719 54.558 50.2719 54.558 50.2719 54.5581C50.3237 55.5265 50.0159 56.1053 49.6206 56.3695C49.2272 56.6324 48.5846 56.692 47.7264 56.2658L42.1788 53.492L42.1746 53.4899C41.1254 52.9776 39.9175 52.8953 38.8085 53.2607C37.6996 53.6261 36.7772 54.4102 36.2381 55.4459L36.2377 55.4466L33.3609 60.9922L33.3607 60.9926C32.9172 61.8494 32.3544 62.1927 31.8692 62.2192C31.3838 62.2456 30.7871 61.9653 30.2532 61.1633C30.2531 61.1632 30.2531 61.1631 30.253 61.163L26.9829 56.2386L26.9829 56.2386L26.9786 56.2322C26.3133 55.2632 25.311 54.5768 24.167 54.3068C23.0231 54.0369 21.8196 54.2028 20.7913 54.7722L20.7913 54.7721L20.783 54.7769L12.9018 59.3399C12.4735 59.5874 12.1308 59.7063 11.8787 59.7388C11.6299 59.7709 11.511 59.7159 11.4554 59.6698C11.3988 59.6229 11.3202 59.5127 11.3022 59.255C11.284 58.9953 11.3326 58.6292 11.4892 58.1534C11.4892 58.1533 11.4893 58.1532 11.4893 58.1531L14.926 47.7278L14.9261 47.7275C15.3061 46.5731 15.1724 45.4324 14.613 44.5358C14.0531 43.6383 13.091 43.0245 11.8936 42.8796L5.18974 42.0668L5.18964 42.0668C4.19165 41.946 3.82614 41.5867 3.74568 41.3237C3.66426 41.0576 3.76808 40.5474 4.52438 39.8743L4.52461 39.8741L10.0508 34.9495C11.8742 33.3266 11.8742 30.6446 10.0508 29.0217L4.52461 24.0971L4.52438 24.0969C3.79581 23.4485 3.6313 22.8609 3.72465 22.4581C3.8177 22.0566 4.22111 21.6062 5.1541 21.3532C5.15432 21.3531 5.15454 21.3531 5.15476 21.353L10.0974 20.0286L10.0986 20.0283C12.3869 19.409 14.1308 16.9769 14.0001 14.5878C14 14.5876 14 14.5873 14 14.587L13.7249 9.41983L13.7248 9.41975C13.6731 8.45179 13.9835 7.85258 14.3962 7.56735C14.8069 7.28356 15.466 7.20924 16.3348 7.60937L16.3355 7.60967L21.4555 9.95848L21.4558 9.95863C23.6295 10.9538 26.3732 10.0672 27.5788 7.9744L27.579 7.97415L30.4877 2.91824C30.4877 2.91821 30.4877 2.91818 30.4878 2.91815C30.9717 2.07741 31.5344 1.775 31.9899 1.77761C32.4452 1.78021 33.0049 2.08878 33.4804 2.93856L33.4805 2.93876L36.6076 8.52138C36.6081 8.52221 36.6085 8.52303 36.609 8.52385C36.8838 9.02598 37.2582 9.46673 37.7094 9.81909C38.1613 10.172 38.6805 10.4288 39.2353 10.5737C39.7901 10.7186 40.3686 10.7486 40.9354 10.6617C41.5016 10.5749 42.0442 10.3733 42.5298 10.0693C42.5302 10.0691 42.5306 10.0688 42.531 10.0685L51.1716 4.72615C51.1716 4.72613 51.1717 4.72611 51.1717 4.72609C51.5956 4.46413 51.931 4.33309 52.1736 4.29078C52.4155 4.24857 52.5072 4.30171 52.5354 4.32504C52.565 4.34956 52.6365 4.43411 52.6437 4.68749C52.6508 4.94013 52.5894 5.30187 52.419 5.77661C52.419 5.77662 52.419 5.77664 52.419 5.77665L48.5314 16.6011C48.5313 16.6013 48.5313 16.6014 48.5312 16.6015L59.4756 39.8743ZM59.4753 24.1003L53.9492 29.0249L51.5328 20.8224L51.4856 21.3202L51.486 21.3202C51.486 21.3202 51.4861 21.3202 51.4861 21.3202L58.812 22.0144C58.8121 22.0144 58.8123 22.0145 58.8125 22.0145C59.8241 22.1138 60.1786 22.4574 60.2538 22.6919C60.3298 22.9287 60.2397 23.4201 59.4756 24.1001L59.4753 24.1003ZM35.2 45.3H35.7V44.8V38.4V37.9H35.2H28.8H28.3V38.4V44.8V45.3H28.8H35.2ZM35.2 35.7H35.7V35.2V19.2V18.7H35.2H28.8H28.3V19.2V35.2V35.7H28.8H35.2Z" fill="url(#paint0_linear_341_3224)" stroke="url(#paint1_linear_341_3224)"/>
<defs>
<linearGradient id="paint0_linear_341_3224" x1="31.9997" y1="1.27759" x2="31.9997" y2="62.7209" gradientUnits="userSpaceOnUse">
<stop stop-color="#6FDCEF"/>
<stop offset="1" stop-color="#046A93"/>
</linearGradient>
<linearGradient id="paint1_linear_341_3224" x1="31.9997" y1="1.27759" x2="31.9997" y2="62.7209" gradientUnits="userSpaceOnUse">
<stop stop-color="#6FDCEF"/>
<stop offset="1" stop-color="#046A93"/>
</linearGradient>
</defs>
</svg>
