<svg width="64" height="64" viewBox="0 0 64 64" fill="none" xmlns="http://www.w3.org/2000/svg">
<g clip-path="url(#clip0_299_854)">
<path d="M32 64C23.5131 64 15.3737 60.6286 9.37258 54.6274C3.37142 48.6263 0 40.4869 0 32C0 23.5131 3.37142 15.3737 9.37258 9.37258C15.3737 3.37142 23.5131 0 32 0C40.4869 0 48.6263 3.37142 54.6274 9.37258C60.6286 15.3737 64 23.5131 64 32C64 40.4869 60.6286 48.6263 54.6274 54.6274C48.6263 60.6286 40.4869 64 32 64ZM33.008 12.272C32.7814 12.1293 32.5273 12.0359 32.2623 11.9981C31.9972 11.9602 31.7271 11.9787 31.4697 12.0523C31.2122 12.1259 30.9732 12.253 30.7682 12.4253C30.5632 12.5975 30.3969 12.8111 30.28 13.052L25.48 22.78L14.744 24.34C14.3892 24.3888 14.0553 24.5365 13.7804 24.7662C13.5056 24.9959 13.301 25.2983 13.19 25.6388C13.079 25.9794 13.0661 26.3443 13.1527 26.6918C13.2394 27.0393 13.4221 27.3555 13.68 27.604L21.456 35.172L19.616 45.868C19.5569 46.2195 19.5971 46.5806 19.732 46.9105C19.8669 47.2405 20.0912 47.5263 20.3797 47.7357C20.6681 47.9452 21.0092 48.07 21.3647 48.0962C21.7202 48.1224 22.076 48.0489 22.392 47.884L32 42.836L41.6 47.88C41.9159 48.0466 42.2721 48.1213 42.6283 48.0958C42.9844 48.0703 43.3264 47.9456 43.6153 47.7358C43.9042 47.5259 44.1286 47.2394 44.2631 46.9086C44.3975 46.5778 44.4366 46.2159 44.376 45.864L42.544 35.172L50.312 27.6C50.5656 27.3503 50.7446 27.0348 50.829 26.689C50.9134 26.3433 50.8998 25.9808 50.7898 25.6423C50.6797 25.3038 50.4775 25.0027 50.2059 24.7727C49.9343 24.5426 49.604 24.3928 49.252 24.34L38.512 22.78L33.712 13.052C33.5562 12.7304 33.312 12.4598 33.008 12.272Z" fill="url(#paint0_linear_299_854)"/>
</g>
<defs>
<linearGradient id="paint0_linear_299_854" x1="32" y1="0" x2="32" y2="64" gradientUnits="userSpaceOnUse">
<stop stop-color="#6FDCEF"/>
<stop offset="1" stop-color="#046A93"/>
</linearGradient>
<clipPath id="clip0_299_854">
<rect width="64" height="64" fill="white"/>
</clipPath>
</defs>
</svg>
