<svg width="64" height="64" viewBox="0 0 64 64" fill="none" xmlns="http://www.w3.org/2000/svg">
<g clip-path="url(#clip0_241_3045)">
<path d="M31.701 2C15.3244 2 2 15.3234 2 31.7C2 48.0766 15.3244 61.4 31.701 61.4C48.0776 61.4 61.4 48.0766 61.4 31.7C61.4 15.3234 48.0776 2 31.701 2ZM31.701 58.2775C17.045 58.2775 5.12246 46.355 5.12246 31.7C5.12246 17.045 17.045 5.12246 31.701 5.12246C46.355 5.12246 58.2775 17.045 58.2775 31.7C58.2775 46.355 46.355 58.2775 31.701 58.2775Z" fill="#FF9D26"/>
<path d="M51.0248 25.7531C50.8852 25.3234 50.4853 25.0334 50.0348 25.0334H36.7856L32.691 12.4316C32.5514 12.003 32.1514 11.7119 31.701 11.7119C31.2495 11.7119 30.8506 12.003 30.71 12.4316L26.6163 25.0334H13.3662C12.9157 25.0334 12.5158 25.3234 12.3762 25.7531C12.2366 26.1818 12.3891 26.651 12.7544 26.9173L23.4741 34.7037L19.3794 47.3054C19.2399 47.735 19.3923 48.2043 19.7576 48.4696C20.1229 48.7359 20.616 48.7359 20.9813 48.4696L31.7 40.6823L42.4187 48.4696C42.6009 48.6023 42.8147 48.6686 43.0296 48.6686C43.2444 48.6686 43.4592 48.6023 43.6424 48.4696C44.0067 48.2043 44.1582 47.735 44.0196 47.3054L39.9269 34.7037L50.6456 26.9173C51.0109 26.651 51.1634 26.1818 51.0248 25.7531ZM38.0905 33.4642C37.7261 33.7305 37.5737 34.1988 37.7123 34.6284L41.0505 44.9017L32.3128 38.5528C31.9475 38.2875 31.4535 38.2875 31.0892 38.5528L22.3494 44.9026L25.6877 34.6284C25.8283 34.1988 25.6749 33.7305 25.3095 33.4642L16.5698 27.1153H27.3727C27.8232 27.1153 28.2231 26.8253 28.3627 26.3956L31.701 16.1224L35.0393 26.3956C35.1789 26.8253 35.5778 27.1153 36.0293 27.1153H46.8302L38.0905 33.4642Z" fill="#FF9D26"/>
</g>
<defs>
<clipPath id="clip0_241_3045">
<rect width="64" height="64" fill="white"/>
</clipPath>
</defs>
</svg>
