<svg width="64" height="64" viewBox="0 0 64 64" fill="none" xmlns="http://www.w3.org/2000/svg">
<g clip-path="url(#clip0_241_3124)">
<path d="M31.7544 2C20.505 2 11 11.7406 11 23.2692C11 34.1978 29.5051 59.5833 30.2931 60.6595C30.6347 61.1248 31.1772 61.4 31.7544 61.4C32.3315 61.4 32.874 61.1248 33.2156 60.6595C34.0026 59.5833 52.5087 34.1978 52.5087 23.2692C52.5087 11.7406 43.0037 2 31.7544 2ZM31.7544 56.4837C25.8886 48.1746 14.6214 30.6833 14.6214 23.2692C14.6214 13.7038 22.4672 5.62142 31.7544 5.62142C41.0406 5.62142 48.8863 13.7038 48.8863 23.2692C48.8863 30.6843 37.6201 48.1756 31.7544 56.4837Z" fill="#00B032"/>
<path d="M40.7465 19.4527H34.5353L32.6157 13.5444C32.4939 13.1712 32.1464 12.9187 31.7544 12.9187C31.3623 12.9187 31.0148 13.1721 30.894 13.5444L28.9744 19.4527H22.7622C22.3701 19.4527 22.0227 19.7052 21.9019 20.0784C21.7801 20.4516 21.9138 20.8605 22.2306 21.0912L27.2558 24.7423L25.3362 30.6506C25.2154 31.0238 25.3481 31.4317 25.6649 31.6624C25.9827 31.892 26.4123 31.892 26.7301 31.6624L31.7553 28.0113L36.7816 31.6624C36.94 31.7772 37.1271 31.8356 37.3142 31.8356C37.5003 31.8356 37.6874 31.7772 37.8458 31.6624C38.1626 31.4317 38.2963 31.0228 38.1755 30.6506L36.2559 24.7423L41.2811 21.0912C41.5979 20.8605 41.7306 20.4516 41.6098 20.0784C41.4861 19.7052 41.1386 19.4527 40.7465 19.4527ZM34.657 23.6642C34.3402 23.8948 34.2066 24.3037 34.3274 24.6759L35.5896 28.5597L32.286 26.159C32.1276 26.0451 31.9395 25.9867 31.7534 25.9867C31.5672 25.9867 31.3801 26.0451 31.2217 26.159L27.9181 28.5597L29.1794 24.6759C29.3001 24.3027 29.1675 23.8948 28.8507 23.6642L25.5471 21.2634H29.6308C30.0228 21.2634 30.3703 21.011 30.4921 20.6377L31.7524 16.754L33.0146 20.6377C33.1354 21.011 33.4839 21.2634 33.8759 21.2634H37.9587L34.657 23.6642Z" fill="#00B032"/>
</g>
<defs>
<clipPath id="clip0_241_3124">
<rect width="64" height="64" fill="white"/>
</clipPath>
</defs>
</svg>
