<svg width="64" height="64" viewBox="0 0 64 64" fill="none" xmlns="http://www.w3.org/2000/svg">
<g clip-path="url(#clip0_299_908)">
<path d="M5.82651 18.0212C1.83985 18.0212 -0.0214844 20.2852 -0.0214844 23.8106V27.9012C-0.0214844 31.5626 0.634516 33.1252 3.27185 34.7812L5.30652 36.0452C6.95451 37.0426 7.16785 37.7812 7.16785 39.9199V43.5306C7.16785 44.5786 6.68785 45.2266 5.77852 45.2266C4.86652 45.2266 4.38652 44.6186 4.38652 43.5306V37.8639H-0.0214844V43.5706C-0.0214844 47.1386 1.79985 49.3572 5.73585 49.3572C9.80518 49.3572 11.6665 47.0052 11.6665 43.5706V39.1279C11.6665 35.7359 10.7972 33.9892 8.29318 32.3839L6.25851 31.0772C4.82651 30.1652 4.47718 29.5146 4.47718 27.1599V23.8532C4.47718 22.8026 4.95718 22.1546 5.81851 22.1546C6.72785 22.1546 7.25051 22.8132 7.25051 23.8506V29.4639H11.6665V23.8132C11.6665 20.3279 9.80518 18.0266 5.82651 18.0266M13.0558 18.4586V22.8186H16.1758V48.9439H20.6745V22.8132H23.7945V18.4532L13.0558 18.4586ZM26.5652 18.4586L24.0505 48.9306H28.5092L29.1225 40.7892H32.3945L33.0078 48.9306H37.5572L35.0505 18.4586H26.5652ZM39.8585 18.4586V48.9306H44.3572V36.1839H47.0878V46.6292C47.0878 48.3679 47.8238 48.9306 47.8238 48.9306H52.3225C52.3332 48.9412 51.5972 48.3786 51.5972 46.6292V38.7039C51.5972 36.1732 50.6452 34.7839 48.3438 34.3039V33.7786C50.6372 33.4292 51.8105 31.7306 51.8105 28.9866V23.8106C51.8105 20.4586 49.8185 18.4532 45.9625 18.4532L39.8585 18.4586ZM53.2452 18.4586V22.8186H56.3625V48.9439H60.8612V22.8132H63.9812V18.4532L53.2452 18.4586ZM30.5012 22.5919H31.0345L32.0985 36.6559H29.4398L30.5012 22.5919ZM44.3678 22.6026H45.5332C46.9252 22.6026 47.3118 23.1679 47.3118 25.4292V29.2132C47.3118 31.3919 46.8318 32.0399 45.3598 32.0399H44.3678V22.6026Z" fill="url(#paint0_linear_299_908)"/>
</g>
<defs>
<linearGradient id="paint0_linear_299_908" x1="31.9798" y1="18.0212" x2="31.9798" y2="49.3572" gradientUnits="userSpaceOnUse">
<stop stop-color="#ADCF0D"/>
<stop offset="1" stop-color="#0B854A"/>
</linearGradient>
<clipPath id="clip0_299_908">
<rect width="64" height="64" fill="white"/>
</clipPath>
</defs>
</svg>
