<svg width="64" height="64" viewBox="0 0 64 64" fill="none" xmlns="http://www.w3.org/2000/svg">
<path d="M64 38.4001V54.4001H0V38.4001C1.69739 38.4001 3.32525 37.7258 4.52548 36.5256C5.72572 35.3253 6.4 33.6975 6.4 32.0001C6.4 30.3027 5.72572 28.6748 4.52548 27.4746C3.32525 26.2744 1.69739 25.6001 0 25.6001L0 9.6001H64V25.6001C62.3026 25.6001 60.6748 26.2744 59.4745 27.4746C58.2743 28.6748 57.6 30.3027 57.6 32.0001C57.6 33.6975 58.2743 35.3253 59.4745 36.5256C60.6748 37.7258 62.3026 38.4001 64 38.4001ZM9.6 16.0001V48.0001H54.4V16.0001H9.6ZM32 38.6561L22.656 45.1841L25.92 34.2401L16.864 27.3921L28.256 27.1361L32 16.3841L35.744 27.1361L47.136 27.3921L38.048 34.2721L41.344 45.1521L32 38.6881V38.6561Z" fill="url(#paint0_linear_411_3354)"/>
<defs>
<linearGradient id="paint0_linear_411_3354" x1="32" y1="9.6001" x2="32" y2="54.4001" gradientUnits="userSpaceOnUse">
<stop stop-color="#F4DE17"/>
<stop offset="1" stop-color="#ED7911"/>
</linearGradient>
</defs>
</svg>
